G04 #@! TF.GenerationSoftware,KiCad,Pcbnew,(6.0.8)*
G04 #@! TF.CreationDate,2023-05-03T15:07:12+02:00*
G04 #@! TF.ProjectId,18_Mesure_Courant,31385f4d-6573-4757-9265-5f436f757261,rev?*
G04 #@! TF.SameCoordinates,Original*
G04 #@! TF.FileFunction,AssemblyDrawing,Top*
%FSLAX46Y46*%
G04 Gerber Fmt 4.6, Leading zero omitted, Abs format (unit mm)*
G04 Created by KiCad (PCBNEW (6.0.8)) date 2023-05-03 15:07:12*
%MOMM*%
%LPD*%
G01*
G04 APERTURE LIST*
%ADD10C,0.060000*%
%ADD11C,0.120000*%
%ADD12C,0.150000*%
%ADD13C,0.100000*%
G04 APERTURE END LIST*
D10*
X112302933Y-66043152D02*
X112169600Y-65852676D01*
X112074361Y-66043152D02*
X112074361Y-65643152D01*
X112226742Y-65643152D01*
X112264838Y-65662200D01*
X112283885Y-65681247D01*
X112302933Y-65719342D01*
X112302933Y-65776485D01*
X112283885Y-65814580D01*
X112264838Y-65833628D01*
X112226742Y-65852676D01*
X112074361Y-65852676D01*
X112683885Y-66043152D02*
X112455314Y-66043152D01*
X112569600Y-66043152D02*
X112569600Y-65643152D01*
X112531504Y-65700295D01*
X112493409Y-65738390D01*
X112455314Y-65757438D01*
X111673333Y-73782857D02*
X111654285Y-73801904D01*
X111597142Y-73820952D01*
X111559047Y-73820952D01*
X111501904Y-73801904D01*
X111463809Y-73763809D01*
X111444761Y-73725714D01*
X111425714Y-73649523D01*
X111425714Y-73592380D01*
X111444761Y-73516190D01*
X111463809Y-73478095D01*
X111501904Y-73440000D01*
X111559047Y-73420952D01*
X111597142Y-73420952D01*
X111654285Y-73440000D01*
X111673333Y-73459047D01*
X112054285Y-73820952D02*
X111825714Y-73820952D01*
X111940000Y-73820952D02*
X111940000Y-73420952D01*
X111901904Y-73478095D01*
X111863809Y-73516190D01*
X111825714Y-73535238D01*
D11*
X110806666Y-71225714D02*
X110768571Y-71263809D01*
X110654285Y-71301904D01*
X110578095Y-71301904D01*
X110463809Y-71263809D01*
X110387619Y-71187619D01*
X110349523Y-71111428D01*
X110311428Y-70959047D01*
X110311428Y-70844761D01*
X110349523Y-70692380D01*
X110387619Y-70616190D01*
X110463809Y-70540000D01*
X110578095Y-70501904D01*
X110654285Y-70501904D01*
X110768571Y-70540000D01*
X110806666Y-70578095D01*
X111111428Y-70578095D02*
X111149523Y-70540000D01*
X111225714Y-70501904D01*
X111416190Y-70501904D01*
X111492380Y-70540000D01*
X111530476Y-70578095D01*
X111568571Y-70654285D01*
X111568571Y-70730476D01*
X111530476Y-70844761D01*
X111073333Y-71301904D01*
X111568571Y-71301904D01*
D10*
X111693333Y-81422857D02*
X111674285Y-81441904D01*
X111617142Y-81460952D01*
X111579047Y-81460952D01*
X111521904Y-81441904D01*
X111483809Y-81403809D01*
X111464761Y-81365714D01*
X111445714Y-81289523D01*
X111445714Y-81232380D01*
X111464761Y-81156190D01*
X111483809Y-81118095D01*
X111521904Y-81080000D01*
X111579047Y-81060952D01*
X111617142Y-81060952D01*
X111674285Y-81080000D01*
X111693333Y-81099047D01*
X112036190Y-81194285D02*
X112036190Y-81460952D01*
X111940952Y-81041904D02*
X111845714Y-81327619D01*
X112093333Y-81327619D01*
D12*
X109093333Y-76903333D02*
X109093333Y-77696666D01*
X109140000Y-77790000D01*
X109186666Y-77836666D01*
X109280000Y-77883333D01*
X109466666Y-77883333D01*
X109560000Y-77836666D01*
X109606666Y-77790000D01*
X109653333Y-77696666D01*
X109653333Y-76903333D01*
X110633333Y-77883333D02*
X110073333Y-77883333D01*
X110353333Y-77883333D02*
X110353333Y-76903333D01*
X110260000Y-77043333D01*
X110166666Y-77136666D01*
X110073333Y-77183333D01*
X103806666Y-65492380D02*
X103806666Y-66206666D01*
X103759047Y-66349523D01*
X103663809Y-66444761D01*
X103520952Y-66492380D01*
X103425714Y-66492380D01*
X104806666Y-66492380D02*
X104235238Y-66492380D01*
X104520952Y-66492380D02*
X104520952Y-65492380D01*
X104425714Y-65635238D01*
X104330476Y-65730476D01*
X104235238Y-65778095D01*
X103806666Y-68032380D02*
X103806666Y-68746666D01*
X103759047Y-68889523D01*
X103663809Y-68984761D01*
X103520952Y-69032380D01*
X103425714Y-69032380D01*
X104235238Y-68127619D02*
X104282857Y-68080000D01*
X104378095Y-68032380D01*
X104616190Y-68032380D01*
X104711428Y-68080000D01*
X104759047Y-68127619D01*
X104806666Y-68222857D01*
X104806666Y-68318095D01*
X104759047Y-68460952D01*
X104187619Y-69032380D01*
X104806666Y-69032380D01*
X103806666Y-70572380D02*
X103806666Y-71286666D01*
X103759047Y-71429523D01*
X103663809Y-71524761D01*
X103520952Y-71572380D01*
X103425714Y-71572380D01*
X104187619Y-70572380D02*
X104806666Y-70572380D01*
X104473333Y-70953333D01*
X104616190Y-70953333D01*
X104711428Y-71000952D01*
X104759047Y-71048571D01*
X104806666Y-71143809D01*
X104806666Y-71381904D01*
X104759047Y-71477142D01*
X104711428Y-71524761D01*
X104616190Y-71572380D01*
X104330476Y-71572380D01*
X104235238Y-71524761D01*
X104187619Y-71477142D01*
X103806666Y-73112380D02*
X103806666Y-73826666D01*
X103759047Y-73969523D01*
X103663809Y-74064761D01*
X103520952Y-74112380D01*
X103425714Y-74112380D01*
X104711428Y-73445714D02*
X104711428Y-74112380D01*
X104473333Y-73064761D02*
X104235238Y-73779047D01*
X104854285Y-73779047D01*
X103806666Y-75652380D02*
X103806666Y-76366666D01*
X103759047Y-76509523D01*
X103663809Y-76604761D01*
X103520952Y-76652380D01*
X103425714Y-76652380D01*
X104759047Y-75652380D02*
X104282857Y-75652380D01*
X104235238Y-76128571D01*
X104282857Y-76080952D01*
X104378095Y-76033333D01*
X104616190Y-76033333D01*
X104711428Y-76080952D01*
X104759047Y-76128571D01*
X104806666Y-76223809D01*
X104806666Y-76461904D01*
X104759047Y-76557142D01*
X104711428Y-76604761D01*
X104616190Y-76652380D01*
X104378095Y-76652380D01*
X104282857Y-76604761D01*
X104235238Y-76557142D01*
X103806666Y-78192380D02*
X103806666Y-78906666D01*
X103759047Y-79049523D01*
X103663809Y-79144761D01*
X103520952Y-79192380D01*
X103425714Y-79192380D01*
X104711428Y-78192380D02*
X104520952Y-78192380D01*
X104425714Y-78240000D01*
X104378095Y-78287619D01*
X104282857Y-78430476D01*
X104235238Y-78620952D01*
X104235238Y-79001904D01*
X104282857Y-79097142D01*
X104330476Y-79144761D01*
X104425714Y-79192380D01*
X104616190Y-79192380D01*
X104711428Y-79144761D01*
X104759047Y-79097142D01*
X104806666Y-79001904D01*
X104806666Y-78763809D01*
X104759047Y-78668571D01*
X104711428Y-78620952D01*
X104616190Y-78573333D01*
X104425714Y-78573333D01*
X104330476Y-78620952D01*
X104282857Y-78668571D01*
X104235238Y-78763809D01*
X103806666Y-80732380D02*
X103806666Y-81446666D01*
X103759047Y-81589523D01*
X103663809Y-81684761D01*
X103520952Y-81732380D01*
X103425714Y-81732380D01*
X104187619Y-80732380D02*
X104854285Y-80732380D01*
X104425714Y-81732380D01*
D10*
X110074057Y-66690866D02*
X110093104Y-66709914D01*
X110112152Y-66767057D01*
X110112152Y-66805152D01*
X110093104Y-66862295D01*
X110055009Y-66900390D01*
X110016914Y-66919438D01*
X109940723Y-66938485D01*
X109883580Y-66938485D01*
X109807390Y-66919438D01*
X109769295Y-66900390D01*
X109731200Y-66862295D01*
X109712152Y-66805152D01*
X109712152Y-66767057D01*
X109731200Y-66709914D01*
X109750247Y-66690866D01*
X109712152Y-66557533D02*
X109712152Y-66309914D01*
X109864533Y-66443247D01*
X109864533Y-66386104D01*
X109883580Y-66348009D01*
X109902628Y-66328961D01*
X109940723Y-66309914D01*
X110035961Y-66309914D01*
X110074057Y-66328961D01*
X110093104Y-66348009D01*
X110112152Y-66386104D01*
X110112152Y-66500390D01*
X110093104Y-66538485D01*
X110074057Y-66557533D01*
D13*
X111569600Y-66274700D02*
X111569600Y-65449700D01*
X113169600Y-65449700D02*
X113169600Y-66274700D01*
X111569600Y-65449700D02*
X113169600Y-65449700D01*
X113169600Y-66274700D02*
X111569600Y-66274700D01*
X112540000Y-73240000D02*
X112540000Y-74040000D01*
X110940000Y-74040000D02*
X110940000Y-73240000D01*
X112540000Y-74040000D02*
X110940000Y-74040000D01*
X110940000Y-73240000D02*
X112540000Y-73240000D01*
X109340000Y-69690000D02*
X112540000Y-69690000D01*
X112540000Y-72190000D02*
X109340000Y-72190000D01*
X109340000Y-72190000D02*
X109340000Y-69690000D01*
X112540000Y-69690000D02*
X112540000Y-72190000D01*
X112560000Y-81680000D02*
X110960000Y-81680000D01*
X110960000Y-80880000D02*
X112560000Y-80880000D01*
X110960000Y-81680000D02*
X110960000Y-80880000D01*
X112560000Y-80880000D02*
X112560000Y-81680000D01*
X107890000Y-79890000D02*
X107890000Y-75965000D01*
X111790000Y-74990000D02*
X111790000Y-79890000D01*
X111790000Y-79890000D02*
X107890000Y-79890000D01*
X108865000Y-74990000D02*
X111790000Y-74990000D01*
X107890000Y-75965000D02*
X108865000Y-74990000D01*
X101600000Y-64770000D02*
X102870000Y-64770000D01*
X105410000Y-64770000D02*
X105410000Y-66675000D01*
X104775000Y-67310000D02*
X101600000Y-67310000D01*
X105410000Y-66675000D02*
X104775000Y-67310000D01*
D11*
X101600000Y-67945000D02*
X101600000Y-64135000D01*
D13*
X102870000Y-64770000D02*
X105410000Y-64770000D01*
D11*
X101600000Y-70485000D02*
X101600000Y-66675000D01*
D13*
X105410000Y-67310000D02*
X105410000Y-69215000D01*
X101600000Y-67310000D02*
X102870000Y-67310000D01*
X104775000Y-69850000D02*
X101600000Y-69850000D01*
X105410000Y-69215000D02*
X104775000Y-69850000D01*
X102870000Y-67310000D02*
X105410000Y-67310000D01*
D11*
X101600000Y-73025000D02*
X101600000Y-69215000D01*
D13*
X104775000Y-72390000D02*
X101600000Y-72390000D01*
X101600000Y-69850000D02*
X102870000Y-69850000D01*
X105410000Y-69850000D02*
X105410000Y-71755000D01*
X105410000Y-71755000D02*
X104775000Y-72390000D01*
X102870000Y-69850000D02*
X105410000Y-69850000D01*
X105410000Y-72390000D02*
X105410000Y-74295000D01*
X104775000Y-74930000D02*
X101600000Y-74930000D01*
D11*
X101600000Y-75565000D02*
X101600000Y-71755000D01*
D13*
X105410000Y-74295000D02*
X104775000Y-74930000D01*
X102870000Y-72390000D02*
X105410000Y-72390000D01*
X101600000Y-72390000D02*
X102870000Y-72390000D01*
X101600000Y-74930000D02*
X102870000Y-74930000D01*
X104775000Y-77470000D02*
X101600000Y-77470000D01*
D11*
X101600000Y-78105000D02*
X101600000Y-74295000D01*
D13*
X105410000Y-76835000D02*
X104775000Y-77470000D01*
X102870000Y-74930000D02*
X105410000Y-74930000D01*
X105410000Y-74930000D02*
X105410000Y-76835000D01*
X105410000Y-79375000D02*
X104775000Y-80010000D01*
X104775000Y-80010000D02*
X101600000Y-80010000D01*
X105410000Y-77470000D02*
X105410000Y-79375000D01*
X101600000Y-77470000D02*
X102870000Y-77470000D01*
X102870000Y-77470000D02*
X105410000Y-77470000D01*
D11*
X101600000Y-80645000D02*
X101600000Y-76835000D01*
D13*
X105410000Y-80010000D02*
X105410000Y-81915000D01*
X101600000Y-80010000D02*
X102870000Y-80010000D01*
D11*
X101600000Y-83185000D02*
X101600000Y-79375000D01*
D13*
X104775000Y-82550000D02*
X101600000Y-82550000D01*
X105410000Y-81915000D02*
X104775000Y-82550000D01*
X102870000Y-80010000D02*
X105410000Y-80010000D01*
X110331200Y-67424200D02*
X109531200Y-67424200D01*
X109531200Y-67424200D02*
X109531200Y-65824200D01*
X110331200Y-65824200D02*
X110331200Y-67424200D01*
X109531200Y-65824200D02*
X110331200Y-65824200D01*
M02*
