G04 #@! TF.GenerationSoftware,KiCad,Pcbnew,(6.0.8)*
G04 #@! TF.CreationDate,2023-05-03T15:07:12+02:00*
G04 #@! TF.ProjectId,18_Mesure_Courant,31385f4d-6573-4757-9265-5f436f757261,rev?*
G04 #@! TF.SameCoordinates,Original*
G04 #@! TF.FileFunction,Copper,L1,Top*
G04 #@! TF.FilePolarity,Positive*
%FSLAX46Y46*%
G04 Gerber Fmt 4.6, Leading zero omitted, Abs format (unit mm)*
G04 Created by KiCad (PCBNEW (6.0.8)) date 2023-05-03 15:07:12*
%MOMM*%
%LPD*%
G01*
G04 APERTURE LIST*
G04 Aperture macros list*
%AMRoundRect*
0 Rectangle with rounded corners*
0 $1 Rounding radius*
0 $2 $3 $4 $5 $6 $7 $8 $9 X,Y pos of 4 corners*
0 Add a 4 corners polygon primitive as box body*
4,1,4,$2,$3,$4,$5,$6,$7,$8,$9,$2,$3,0*
0 Add four circle primitives for the rounded corners*
1,1,$1+$1,$2,$3*
1,1,$1+$1,$4,$5*
1,1,$1+$1,$6,$7*
1,1,$1+$1,$8,$9*
0 Add four rect primitives between the rounded corners*
20,1,$1+$1,$2,$3,$4,$5,0*
20,1,$1+$1,$4,$5,$6,$7,0*
20,1,$1+$1,$6,$7,$8,$9,0*
20,1,$1+$1,$8,$9,$2,$3,0*%
%AMFreePoly0*
4,1,19,2.294749,0.844703,2.473926,0.804652,2.640323,0.727060,2.786177,0.615546,2.904682,0.475314,2.990310,0.312906,3.039066,0.135899,3.048675,-0.047448,3.018688,-0.228582,2.950505,-0.399051,2.847308,-0.550902,2.713909,-0.677050,2.556534,-0.771611,2.382525,-0.830171,2.200000,-0.850000,-0.850000,-0.850000,-0.850000,0.850000,2.200000,0.850000,2.294749,0.844703,2.294749,0.844703,
$1*%
G04 Aperture macros list end*
G04 #@! TA.AperFunction,SMDPad,CuDef*
%ADD10RoundRect,0.200000X0.200000X0.275000X-0.200000X0.275000X-0.200000X-0.275000X0.200000X-0.275000X0*%
G04 #@! TD*
G04 #@! TA.AperFunction,SMDPad,CuDef*
%ADD11RoundRect,0.225000X0.225000X0.250000X-0.225000X0.250000X-0.225000X-0.250000X0.225000X-0.250000X0*%
G04 #@! TD*
G04 #@! TA.AperFunction,SMDPad,CuDef*
%ADD12RoundRect,0.250000X0.325000X1.100000X-0.325000X1.100000X-0.325000X-1.100000X0.325000X-1.100000X0*%
G04 #@! TD*
G04 #@! TA.AperFunction,SMDPad,CuDef*
%ADD13RoundRect,0.150000X-0.825000X-0.150000X0.825000X-0.150000X0.825000X0.150000X-0.825000X0.150000X0*%
G04 #@! TD*
G04 #@! TA.AperFunction,ComponentPad*
%ADD14FreePoly0,180.000000*%
G04 #@! TD*
G04 #@! TA.AperFunction,ComponentPad*
%ADD15C,1.524000*%
G04 #@! TD*
G04 #@! TA.AperFunction,SMDPad,CuDef*
%ADD16RoundRect,0.225000X-0.250000X0.225000X-0.250000X-0.225000X0.250000X-0.225000X0.250000X0.225000X0*%
G04 #@! TD*
G04 #@! TA.AperFunction,ViaPad*
%ADD17C,1.000000*%
G04 #@! TD*
G04 #@! TA.AperFunction,Conductor*
%ADD18C,0.400000*%
G04 #@! TD*
G04 APERTURE END LIST*
D10*
X113194600Y-65862200D03*
X111544600Y-65862200D03*
D11*
X112515000Y-73640000D03*
X110965000Y-73640000D03*
D12*
X112415000Y-70940000D03*
X109465000Y-70940000D03*
D11*
X112535000Y-81280000D03*
X110985000Y-81280000D03*
D13*
X107365000Y-75535000D03*
X107365000Y-76805000D03*
X107365000Y-78075000D03*
X107365000Y-79345000D03*
X112315000Y-79345000D03*
X112315000Y-78075000D03*
X112315000Y-76805000D03*
X112315000Y-75535000D03*
D14*
X104140000Y-66040000D03*
D15*
X101600000Y-66040000D03*
X101600000Y-68580000D03*
D14*
X104140000Y-68580000D03*
D15*
X101600000Y-71120000D03*
D14*
X104140000Y-71120000D03*
X104140000Y-73660000D03*
D15*
X101600000Y-73660000D03*
X101600000Y-76200000D03*
D14*
X104140000Y-76200000D03*
X104140000Y-78740000D03*
D15*
X101600000Y-78740000D03*
X101600000Y-81280000D03*
D14*
X104140000Y-81280000D03*
D16*
X109931200Y-65849200D03*
X109931200Y-67399200D03*
D17*
X109855000Y-81280000D03*
X107950000Y-71755000D03*
X109855000Y-73640000D03*
X111760000Y-67310000D03*
X107950000Y-73660000D03*
X107950000Y-67310000D03*
X113893600Y-76809600D03*
X113665000Y-67487800D03*
D18*
X110672400Y-79345000D02*
X109905800Y-80111600D01*
X106502200Y-68148200D02*
X106070400Y-68580000D01*
X109931200Y-67894200D02*
X109677200Y-68148200D01*
X109677200Y-68148200D02*
X106502200Y-68148200D01*
X106070400Y-68580000D02*
X104140000Y-68580000D01*
X110965000Y-73640000D02*
X109440000Y-73640000D01*
X112315000Y-79345000D02*
X110672400Y-79345000D01*
X109440000Y-73640000D02*
X109440000Y-70965000D01*
X109982000Y-81280000D02*
X110985000Y-81280000D01*
X109931200Y-67399200D02*
X109931200Y-67894200D01*
X109905800Y-80111600D02*
X109905800Y-81203800D01*
X109440000Y-70965000D02*
X109465000Y-70940000D01*
X109905800Y-81203800D02*
X109982000Y-81280000D01*
X113688200Y-70940000D02*
X113690400Y-70942200D01*
X113690400Y-70942200D02*
X113690400Y-73710800D01*
X112415000Y-70940000D02*
X113688200Y-70940000D01*
X106172000Y-71120000D02*
X108458000Y-68834000D01*
X113690400Y-69088000D02*
X113690400Y-70942200D01*
X108458000Y-68834000D02*
X113436400Y-68834000D01*
X113619600Y-73640000D02*
X113690400Y-73710800D01*
X113441000Y-75535000D02*
X112315000Y-75535000D01*
X113690400Y-75285600D02*
X113441000Y-75535000D01*
X113690400Y-73710800D02*
X113690400Y-75285600D01*
X112515000Y-73640000D02*
X113619600Y-73640000D01*
X113436400Y-68834000D02*
X113690400Y-69088000D01*
X104140000Y-71120000D02*
X106172000Y-71120000D01*
X113919000Y-65862200D02*
X113194600Y-65862200D01*
X114046000Y-66802000D02*
X114046000Y-65989200D01*
X114046000Y-65989200D02*
X113919000Y-65862200D01*
X113665000Y-67487800D02*
X113665000Y-67183000D01*
X113665000Y-67183000D02*
X114046000Y-66802000D01*
X112315000Y-76805000D02*
X113889000Y-76805000D01*
X113889000Y-76805000D02*
X113893600Y-76809600D01*
X107048600Y-65849200D02*
X106857800Y-66040000D01*
X109931200Y-65849200D02*
X107048600Y-65849200D01*
X111544600Y-65862200D02*
X109944200Y-65862200D01*
X109944200Y-65862200D02*
X109931200Y-65849200D01*
X106857800Y-66040000D02*
X104140000Y-66040000D01*
X113766600Y-81280000D02*
X113995200Y-81051400D01*
X113995200Y-81051400D02*
X113995200Y-78257400D01*
X112535000Y-81280000D02*
X113766600Y-81280000D01*
X113995200Y-78257400D02*
X113812800Y-78075000D01*
X113812800Y-78075000D02*
X112315000Y-78075000D01*
X104805000Y-75535000D02*
X104140000Y-76200000D01*
X107365000Y-76805000D02*
X104745000Y-76805000D01*
X106015000Y-75535000D02*
X104140000Y-73660000D01*
X107365000Y-75535000D02*
X104805000Y-75535000D01*
X107365000Y-75535000D02*
X106015000Y-75535000D01*
X104745000Y-76805000D02*
X104140000Y-76200000D01*
X105935000Y-79485000D02*
X105935000Y-79345000D01*
X105935000Y-79345000D02*
X104745000Y-79345000D01*
X104140000Y-81280000D02*
X105935000Y-79485000D01*
X107365000Y-78075000D02*
X104805000Y-78075000D01*
X104745000Y-79345000D02*
X104140000Y-78740000D01*
X104805000Y-78075000D02*
X104140000Y-78740000D01*
X107365000Y-79345000D02*
X105935000Y-79345000D01*
G04 #@! TA.AperFunction,Conductor*
G36*
X108582121Y-77760002D02*
G01*
X108628614Y-77813658D01*
X108640000Y-77866000D01*
X108640000Y-81915500D01*
X108619998Y-81983621D01*
X108566342Y-82030114D01*
X108514000Y-82041500D01*
X102234500Y-82041500D01*
X102166379Y-82021498D01*
X102119886Y-81967842D01*
X102108500Y-81915500D01*
X102108500Y-77866000D01*
X102128502Y-77797879D01*
X102182158Y-77751386D01*
X102234500Y-77740000D01*
X108514000Y-77740000D01*
X108582121Y-77760002D01*
G37*
G04 #@! TD.AperFunction*
G04 #@! TA.AperFunction,Conductor*
G36*
X111301152Y-78855863D02*
G01*
X111379989Y-78878767D01*
X111379993Y-78878768D01*
X111386169Y-78880562D01*
X111392574Y-78881066D01*
X111392579Y-78881067D01*
X111421042Y-78883307D01*
X111421050Y-78883307D01*
X111423498Y-78883500D01*
X113160700Y-78883500D01*
X113228821Y-78903502D01*
X113275314Y-78957158D01*
X113286700Y-79009500D01*
X113286700Y-80267297D01*
X113266698Y-80335418D01*
X113213042Y-80381911D01*
X113142768Y-80392015D01*
X113094583Y-80374556D01*
X113078333Y-80364539D01*
X113078330Y-80364538D01*
X113072101Y-80360698D01*
X112909757Y-80306851D01*
X112902920Y-80306151D01*
X112902918Y-80306150D01*
X112861599Y-80301917D01*
X112808732Y-80296500D01*
X112261268Y-80296500D01*
X112258022Y-80296837D01*
X112258018Y-80296837D01*
X112223917Y-80300375D01*
X112158981Y-80307113D01*
X112152440Y-80309295D01*
X112152441Y-80309295D01*
X112003676Y-80358927D01*
X112003674Y-80358928D01*
X111996732Y-80361244D01*
X111990508Y-80365096D01*
X111990507Y-80365096D01*
X111857515Y-80447394D01*
X111851287Y-80451248D01*
X111730448Y-80572298D01*
X111640698Y-80717899D01*
X111586851Y-80880243D01*
X111576500Y-80981268D01*
X111576500Y-81578732D01*
X111587113Y-81681019D01*
X111641244Y-81843268D01*
X111645096Y-81849493D01*
X111648201Y-81856121D01*
X111646976Y-81856695D01*
X111663751Y-81917649D01*
X111642590Y-81985418D01*
X111588149Y-82030990D01*
X111537769Y-82041500D01*
X111266000Y-82041500D01*
X111197879Y-82021498D01*
X111151386Y-81967842D01*
X111140000Y-81915500D01*
X111140000Y-78976860D01*
X111160002Y-78908739D01*
X111213658Y-78862246D01*
X111283932Y-78852142D01*
X111301152Y-78855863D01*
G37*
G04 #@! TD.AperFunction*
G04 #@! TA.AperFunction,Conductor*
G36*
X111348512Y-72269854D02*
G01*
X111385524Y-72325202D01*
X111398450Y-72363946D01*
X111491522Y-72514348D01*
X111616697Y-72639305D01*
X111622927Y-72643145D01*
X111622928Y-72643146D01*
X111720230Y-72703124D01*
X111767723Y-72755896D01*
X111779147Y-72825968D01*
X111750873Y-72891092D01*
X111743291Y-72899398D01*
X111710448Y-72932298D01*
X111620698Y-73077899D01*
X111566851Y-73240243D01*
X111556500Y-73341268D01*
X111556500Y-73938732D01*
X111567113Y-74041019D01*
X111621244Y-74203268D01*
X111711248Y-74348713D01*
X111832298Y-74469552D01*
X111838528Y-74473392D01*
X111838529Y-74473393D01*
X111870727Y-74493240D01*
X111918220Y-74546012D01*
X111929644Y-74616084D01*
X111901370Y-74681208D01*
X111842376Y-74720707D01*
X111804611Y-74726500D01*
X111423498Y-74726500D01*
X111421050Y-74726693D01*
X111421042Y-74726693D01*
X111392579Y-74728933D01*
X111392574Y-74728934D01*
X111386169Y-74729438D01*
X111379993Y-74731232D01*
X111379989Y-74731233D01*
X111301152Y-74754137D01*
X111230156Y-74753934D01*
X111170540Y-74715380D01*
X111141232Y-74650715D01*
X111140000Y-74633140D01*
X111140000Y-72365078D01*
X111160002Y-72296957D01*
X111213658Y-72250464D01*
X111283932Y-72240360D01*
X111348512Y-72269854D01*
G37*
G04 #@! TD.AperFunction*
G04 #@! TA.AperFunction,Conductor*
G36*
X111331500Y-69789600D02*
G01*
X111331500Y-70636787D01*
X111311498Y-70704908D01*
X111257842Y-70751401D01*
X111187568Y-70761505D01*
X111153237Y-70745826D01*
X111140000Y-70742947D01*
X111140000Y-69740000D01*
X111336582Y-69740000D01*
X111331500Y-69789600D01*
G37*
G04 #@! TD.AperFunction*
G04 #@! TA.AperFunction,Conductor*
G36*
X105860121Y-72664002D02*
G01*
X105906614Y-72717658D01*
X105918000Y-72770000D01*
X105918000Y-74422000D01*
X106426000Y-74930000D01*
X108586000Y-74930000D01*
X108654121Y-74950002D01*
X108700614Y-75003658D01*
X108712000Y-75056000D01*
X108712000Y-77090000D01*
X108691998Y-77158121D01*
X108638342Y-77204614D01*
X108586000Y-77216000D01*
X102234500Y-77216000D01*
X102166379Y-77195998D01*
X102119886Y-77142342D01*
X102108500Y-77090000D01*
X102108500Y-72770000D01*
X102128502Y-72701879D01*
X102182158Y-72655386D01*
X102234500Y-72644000D01*
X105792000Y-72644000D01*
X105860121Y-72664002D01*
G37*
G04 #@! TD.AperFunction*
G04 #@! TA.AperFunction,Conductor*
G36*
X111331500Y-72090400D02*
G01*
X111331837Y-72093646D01*
X111331837Y-72093650D01*
X111341752Y-72189206D01*
X111342474Y-72196166D01*
X111398450Y-72363946D01*
X111457634Y-72459587D01*
X111468821Y-72477664D01*
X111487659Y-72546116D01*
X111466498Y-72613886D01*
X111412057Y-72659457D01*
X111339719Y-72666721D01*
X111339655Y-72667343D01*
X111336619Y-72667032D01*
X111335265Y-72667168D01*
X111332810Y-72666642D01*
X111241903Y-72657328D01*
X111236874Y-72657071D01*
X111221876Y-72661475D01*
X111220671Y-72662865D01*
X111219000Y-72670548D01*
X111219000Y-73768000D01*
X111198998Y-73836121D01*
X111145342Y-73882614D01*
X111093000Y-73894000D01*
X110025115Y-73894000D01*
X110009876Y-73898475D01*
X110008671Y-73899865D01*
X110007000Y-73907548D01*
X110007000Y-73935438D01*
X110007337Y-73941953D01*
X110016894Y-74034057D01*
X110019788Y-74047456D01*
X110047034Y-74129124D01*
X110049618Y-74200074D01*
X110013434Y-74261158D01*
X109949970Y-74292982D01*
X109927510Y-74295000D01*
X107441000Y-74295000D01*
X107372879Y-74274998D01*
X107326386Y-74221342D01*
X107315000Y-74169000D01*
X107315000Y-72087095D01*
X108382001Y-72087095D01*
X108382338Y-72093614D01*
X108392257Y-72189206D01*
X108395149Y-72202600D01*
X108446588Y-72356784D01*
X108452761Y-72369962D01*
X108538063Y-72507807D01*
X108547099Y-72519208D01*
X108661829Y-72633739D01*
X108673240Y-72642751D01*
X108811243Y-72727816D01*
X108824424Y-72733963D01*
X108978710Y-72785138D01*
X108992086Y-72788005D01*
X109086438Y-72797672D01*
X109092854Y-72798000D01*
X109192885Y-72798000D01*
X109208124Y-72793525D01*
X109209329Y-72792135D01*
X109211000Y-72784452D01*
X109211000Y-72779884D01*
X109719000Y-72779884D01*
X109723475Y-72795123D01*
X109724865Y-72796328D01*
X109732548Y-72797999D01*
X109837095Y-72797999D01*
X109843614Y-72797662D01*
X109939206Y-72787743D01*
X109952603Y-72784850D01*
X110000132Y-72768994D01*
X110071081Y-72766410D01*
X110132165Y-72802594D01*
X110163989Y-72866059D01*
X110156450Y-72936654D01*
X110147267Y-72954634D01*
X110074996Y-73071880D01*
X110068849Y-73085061D01*
X110019509Y-73233814D01*
X110016642Y-73247190D01*
X110007328Y-73338097D01*
X110007000Y-73344514D01*
X110007000Y-73367885D01*
X110011475Y-73383124D01*
X110012865Y-73384329D01*
X110020548Y-73386000D01*
X110692885Y-73386000D01*
X110708124Y-73381525D01*
X110709329Y-73380135D01*
X110711000Y-73372452D01*
X110711000Y-72675115D01*
X110706525Y-72659876D01*
X110705135Y-72658671D01*
X110697452Y-72657000D01*
X110694562Y-72657000D01*
X110688047Y-72657337D01*
X110595943Y-72666894D01*
X110582539Y-72669789D01*
X110546391Y-72681849D01*
X110475441Y-72684434D01*
X110414357Y-72648251D01*
X110382532Y-72584787D01*
X110390071Y-72514192D01*
X110399254Y-72496210D01*
X110477816Y-72368757D01*
X110483963Y-72355576D01*
X110535138Y-72201290D01*
X110538005Y-72187914D01*
X110547672Y-72093562D01*
X110548000Y-72087146D01*
X110548000Y-71212115D01*
X110543525Y-71196876D01*
X110542135Y-71195671D01*
X110534452Y-71194000D01*
X109737115Y-71194000D01*
X109721876Y-71198475D01*
X109720671Y-71199865D01*
X109719000Y-71207548D01*
X109719000Y-72779884D01*
X109211000Y-72779884D01*
X109211000Y-71212115D01*
X109206525Y-71196876D01*
X109205135Y-71195671D01*
X109197452Y-71194000D01*
X108400116Y-71194000D01*
X108384877Y-71198475D01*
X108383672Y-71199865D01*
X108382001Y-71207548D01*
X108382001Y-72087095D01*
X107315000Y-72087095D01*
X107315000Y-71031160D01*
X107335002Y-70963039D01*
X107351900Y-70942071D01*
X108166906Y-70127064D01*
X108229217Y-70093040D01*
X108300033Y-70098105D01*
X108356868Y-70140652D01*
X108381679Y-70207172D01*
X108382000Y-70216161D01*
X108382000Y-70667885D01*
X108386475Y-70683124D01*
X108387865Y-70684329D01*
X108395548Y-70686000D01*
X110529884Y-70686000D01*
X110545123Y-70681525D01*
X110546328Y-70680135D01*
X110547999Y-70672452D01*
X110547999Y-69850000D01*
X111331500Y-69850000D01*
X111331500Y-72090400D01*
G37*
G04 #@! TD.AperFunction*
G04 #@! TA.AperFunction,Conductor*
G36*
X108300033Y-70098106D02*
G01*
X108356868Y-70140653D01*
X108381679Y-70207173D01*
X108382000Y-70216162D01*
X108382000Y-70614000D01*
X108361998Y-70682121D01*
X108308342Y-70728614D01*
X108256000Y-70740000D01*
X107858161Y-70740000D01*
X107790040Y-70719998D01*
X107743547Y-70666342D01*
X107733443Y-70596068D01*
X107762937Y-70531488D01*
X107769059Y-70524912D01*
X108166904Y-70127066D01*
X108229217Y-70093041D01*
X108300033Y-70098106D01*
G37*
G04 #@! TD.AperFunction*
G04 #@! TA.AperFunction,Conductor*
G36*
X111285794Y-69562502D02*
G01*
X111332287Y-69616158D01*
X111342204Y-69685135D01*
X111342203Y-69685139D01*
X111331500Y-69789600D01*
X111331500Y-70636787D01*
X111311498Y-70704908D01*
X111271000Y-70740000D01*
X110673999Y-70740000D01*
X110605878Y-70719998D01*
X110559385Y-70666342D01*
X110547999Y-70614000D01*
X110547999Y-69792905D01*
X110547662Y-69786386D01*
X110537032Y-69683937D01*
X110539510Y-69683680D01*
X110543838Y-69624306D01*
X110586462Y-69567529D01*
X110653016Y-69542809D01*
X110661833Y-69542500D01*
X111217673Y-69542500D01*
X111285794Y-69562502D01*
G37*
G04 #@! TD.AperFunction*
G04 #@! TA.AperFunction,Conductor*
G36*
X109042558Y-66577702D02*
G01*
X109089051Y-66631358D01*
X109099155Y-66701632D01*
X109081697Y-66749816D01*
X109016196Y-66856080D01*
X109010049Y-66869261D01*
X108960709Y-67018014D01*
X108957842Y-67031390D01*
X108948528Y-67122297D01*
X108948271Y-67127326D01*
X108952675Y-67142324D01*
X108954065Y-67143529D01*
X108961748Y-67145200D01*
X110896085Y-67145200D01*
X110911324Y-67140725D01*
X110912529Y-67139335D01*
X110914200Y-67131652D01*
X110914200Y-67128762D01*
X110913863Y-67122247D01*
X110904306Y-67030143D01*
X110901411Y-67016741D01*
X110875693Y-66939651D01*
X110873109Y-66868702D01*
X110909293Y-66807618D01*
X110972758Y-66775794D01*
X111046216Y-66784835D01*
X111050901Y-66787672D01*
X111214538Y-66838953D01*
X111287965Y-66845700D01*
X111290863Y-66845700D01*
X111545265Y-66845699D01*
X111801234Y-66845699D01*
X111804092Y-66845436D01*
X111804101Y-66845436D01*
X111839604Y-66842174D01*
X111874662Y-66838953D01*
X111890301Y-66834052D01*
X112031050Y-66789944D01*
X112031052Y-66789943D01*
X112038299Y-66787672D01*
X112184981Y-66698839D01*
X112280505Y-66603315D01*
X112342817Y-66569289D01*
X112413632Y-66574354D01*
X112458695Y-66603315D01*
X112554219Y-66698839D01*
X112700901Y-66787672D01*
X112722988Y-66794594D01*
X112782008Y-66834052D01*
X112810328Y-66899156D01*
X112795721Y-66975527D01*
X112736535Y-67083187D01*
X112736533Y-67083192D01*
X112733567Y-67088587D01*
X112731706Y-67094454D01*
X112731705Y-67094456D01*
X112716138Y-67143529D01*
X112673765Y-67277106D01*
X112651719Y-67473651D01*
X112655472Y-67518346D01*
X112666796Y-67653200D01*
X112668268Y-67670734D01*
X112722783Y-67860850D01*
X112735637Y-67885860D01*
X112764440Y-67941905D01*
X112777788Y-68011636D01*
X112751318Y-68077513D01*
X112693434Y-68118622D01*
X112652374Y-68125500D01*
X110958567Y-68125500D01*
X110890446Y-68105498D01*
X110843953Y-68051842D01*
X110833849Y-67981568D01*
X110844372Y-67946250D01*
X110852351Y-67929140D01*
X110901691Y-67780386D01*
X110904558Y-67767010D01*
X110913872Y-67676103D01*
X110914129Y-67671074D01*
X110909725Y-67656076D01*
X110908335Y-67654871D01*
X110900652Y-67653200D01*
X108966315Y-67653200D01*
X108951076Y-67657675D01*
X108949871Y-67659065D01*
X108948200Y-67666748D01*
X108948200Y-67669638D01*
X108948537Y-67676153D01*
X108958094Y-67768257D01*
X108960988Y-67781656D01*
X109010581Y-67930307D01*
X109017955Y-67946048D01*
X109028740Y-68016221D01*
X108999874Y-68081085D01*
X108940523Y-68120046D01*
X108903854Y-68125500D01*
X108486912Y-68125500D01*
X108478342Y-68125208D01*
X108428224Y-68121791D01*
X108428220Y-68121791D01*
X108420648Y-68121275D01*
X108413171Y-68122580D01*
X108413170Y-68122580D01*
X108398113Y-68125208D01*
X108357703Y-68132261D01*
X108351186Y-68133222D01*
X108287758Y-68140898D01*
X108280650Y-68143584D01*
X108278056Y-68144221D01*
X108261750Y-68148682D01*
X108259199Y-68149452D01*
X108251716Y-68150758D01*
X108244764Y-68153810D01*
X108244763Y-68153810D01*
X108193212Y-68176439D01*
X108187105Y-68178931D01*
X108134452Y-68198827D01*
X108127344Y-68201513D01*
X108121083Y-68205816D01*
X108118717Y-68207053D01*
X108103937Y-68215280D01*
X108101652Y-68216631D01*
X108094695Y-68219685D01*
X108088675Y-68224305D01*
X108088669Y-68224308D01*
X108062257Y-68244576D01*
X108043998Y-68258587D01*
X108038668Y-68262459D01*
X107992280Y-68294339D01*
X107992275Y-68294344D01*
X107986019Y-68298643D01*
X107980968Y-68304313D01*
X107980966Y-68304314D01*
X107944565Y-68345170D01*
X107939584Y-68350446D01*
X105915435Y-70374595D01*
X105853123Y-70408621D01*
X105826340Y-70411500D01*
X105629729Y-70411500D01*
X105561608Y-70391498D01*
X105515115Y-70337842D01*
X105503729Y-70285500D01*
X105503729Y-70270000D01*
X105498500Y-70196889D01*
X105457304Y-70056589D01*
X105392194Y-69955276D01*
X105383122Y-69941159D01*
X105383120Y-69941156D01*
X105378250Y-69933579D01*
X105371440Y-69927678D01*
X105274555Y-69843726D01*
X105274552Y-69843724D01*
X105267743Y-69837824D01*
X105134734Y-69777081D01*
X104990000Y-69756271D01*
X102423134Y-69756271D01*
X102355013Y-69736269D01*
X102308520Y-69682613D01*
X102304817Y-69660043D01*
X102287071Y-69626281D01*
X102145405Y-69484615D01*
X102111379Y-69422303D01*
X102108500Y-69395520D01*
X102108500Y-69033480D01*
X102128502Y-68965359D01*
X102182158Y-68918866D01*
X102252432Y-68908762D01*
X102317012Y-68938256D01*
X102323595Y-68944385D01*
X102647003Y-69267793D01*
X102658777Y-69274223D01*
X102670793Y-69264926D01*
X102700897Y-69221932D01*
X102706377Y-69212441D01*
X102795645Y-69021007D01*
X102799391Y-69010715D01*
X102854059Y-68806691D01*
X102855962Y-68795896D01*
X102874372Y-68585475D01*
X102874372Y-68574525D01*
X102855962Y-68364104D01*
X102854059Y-68353309D01*
X102799391Y-68149285D01*
X102795645Y-68138993D01*
X102706377Y-67947559D01*
X102700897Y-67938068D01*
X102670206Y-67894235D01*
X102659729Y-67885860D01*
X102646282Y-67892928D01*
X102323595Y-68215615D01*
X102261283Y-68249641D01*
X102190468Y-68244576D01*
X102133632Y-68202029D01*
X102108821Y-68135509D01*
X102108500Y-68126520D01*
X102108500Y-67764480D01*
X102128502Y-67696359D01*
X102145405Y-67675385D01*
X102287793Y-67532997D01*
X102304856Y-67501750D01*
X102311905Y-67469344D01*
X102362107Y-67419142D01*
X102422493Y-67403729D01*
X104990000Y-67403729D01*
X105021986Y-67401441D01*
X105056373Y-67398982D01*
X105056374Y-67398982D01*
X105063111Y-67398500D01*
X105142618Y-67375155D01*
X105194765Y-67359843D01*
X105194767Y-67359842D01*
X105203411Y-67357304D01*
X105242730Y-67332035D01*
X105318841Y-67283122D01*
X105318844Y-67283120D01*
X105326421Y-67278250D01*
X105390132Y-67204724D01*
X105416274Y-67174555D01*
X105416276Y-67174552D01*
X105422176Y-67167743D01*
X105433785Y-67142324D01*
X105479175Y-67042932D01*
X105482919Y-67034734D01*
X105503729Y-66890000D01*
X105503729Y-66874500D01*
X105523731Y-66806379D01*
X105577387Y-66759886D01*
X105629729Y-66748500D01*
X106828888Y-66748500D01*
X106837458Y-66748792D01*
X106887576Y-66752209D01*
X106887580Y-66752209D01*
X106895152Y-66752725D01*
X106902629Y-66751420D01*
X106902630Y-66751420D01*
X106951126Y-66742956D01*
X106958103Y-66741738D01*
X106964621Y-66740777D01*
X107028042Y-66733102D01*
X107035143Y-66730419D01*
X107037752Y-66729778D01*
X107054062Y-66725315D01*
X107056598Y-66724550D01*
X107064084Y-66723243D01*
X107122600Y-66697556D01*
X107128704Y-66695065D01*
X107181348Y-66675173D01*
X107181349Y-66675172D01*
X107188456Y-66672487D01*
X107194719Y-66668183D01*
X107197085Y-66666946D01*
X107211897Y-66658701D01*
X107214151Y-66657368D01*
X107221105Y-66654315D01*
X107271802Y-66615413D01*
X107277115Y-66611553D01*
X107323231Y-66579859D01*
X107394596Y-66557700D01*
X108974437Y-66557700D01*
X109042558Y-66577702D01*
G37*
G04 #@! TD.AperFunction*
M02*
