%TF.GenerationSoftware,KiCad,Pcbnew,(5.1.9)-1*%
%TF.CreationDate,2021-06-01T15:36:46+02:00*%
%TF.ProjectId,18_Mesure_Courant,31385f4d-6573-4757-9265-5f436f757261,rev?*%
%TF.SameCoordinates,Original*%
%TF.FileFunction,Legend,Top*%
%TF.FilePolarity,Positive*%
%FSLAX46Y46*%
G04 Gerber Fmt 4.6, Leading zero omitted, Abs format (unit mm)*
G04 Created by KiCad (PCBNEW (5.1.9)-1) date 2021-06-01 15:36:46*
%MOMM*%
%LPD*%
G01*
G04 APERTURE LIST*
%ADD10C,0.150000*%
%TA.AperFunction,Profile*%
%ADD11C,0.050000*%
%TD*%
%ADD12C,0.125000*%
%ADD13C,0.120000*%
G04 APERTURE END LIST*
D10*
X106240000Y-80692380D02*
X106430476Y-80692380D01*
X106525714Y-80740000D01*
X106620952Y-80835238D01*
X106668571Y-81025714D01*
X106668571Y-81359047D01*
X106620952Y-81549523D01*
X106525714Y-81644761D01*
X106430476Y-81692380D01*
X106240000Y-81692380D01*
X106144761Y-81644761D01*
X106049523Y-81549523D01*
X106001904Y-81359047D01*
X106001904Y-81025714D01*
X106049523Y-80835238D01*
X106144761Y-80740000D01*
X106240000Y-80692380D01*
X107097142Y-80692380D02*
X107097142Y-81501904D01*
X107144761Y-81597142D01*
X107192380Y-81644761D01*
X107287619Y-81692380D01*
X107478095Y-81692380D01*
X107573333Y-81644761D01*
X107620952Y-81597142D01*
X107668571Y-81501904D01*
X107668571Y-80692380D01*
X108001904Y-80692380D02*
X108573333Y-80692380D01*
X108287619Y-81692380D02*
X108287619Y-80692380D01*
X106116190Y-74192380D02*
X106116190Y-73192380D01*
X106592380Y-74192380D02*
X106592380Y-73192380D01*
X107163809Y-74192380D01*
X107163809Y-73192380D01*
D11*
X101600000Y-69850000D02*
X100330000Y-69850000D01*
X101600000Y-72390000D02*
X101600000Y-69850000D01*
X100330000Y-72390000D02*
X101600000Y-72390000D01*
D10*
X106640000Y-64192380D02*
X106640000Y-63192380D01*
X107116190Y-64192380D02*
X107116190Y-63525714D01*
X107116190Y-63620952D02*
X107163809Y-63573333D01*
X107259047Y-63525714D01*
X107401904Y-63525714D01*
X107497142Y-63573333D01*
X107544761Y-63668571D01*
X107544761Y-64192380D01*
X107544761Y-63668571D02*
X107592380Y-63573333D01*
X107687619Y-63525714D01*
X107830476Y-63525714D01*
X107925714Y-63573333D01*
X107973333Y-63668571D01*
X107973333Y-64192380D01*
X108830476Y-64144761D02*
X108735238Y-64192380D01*
X108544761Y-64192380D01*
X108449523Y-64144761D01*
X108401904Y-64049523D01*
X108401904Y-63668571D01*
X108449523Y-63573333D01*
X108544761Y-63525714D01*
X108735238Y-63525714D01*
X108830476Y-63573333D01*
X108878095Y-63668571D01*
X108878095Y-63763809D01*
X108401904Y-63859047D01*
X109259047Y-64144761D02*
X109354285Y-64192380D01*
X109544761Y-64192380D01*
X109640000Y-64144761D01*
X109687619Y-64049523D01*
X109687619Y-64001904D01*
X109640000Y-63906666D01*
X109544761Y-63859047D01*
X109401904Y-63859047D01*
X109306666Y-63811428D01*
X109259047Y-63716190D01*
X109259047Y-63668571D01*
X109306666Y-63573333D01*
X109401904Y-63525714D01*
X109544761Y-63525714D01*
X109640000Y-63573333D01*
X106949523Y-68192380D02*
X106473333Y-68192380D01*
X106425714Y-68668571D01*
X106473333Y-68620952D01*
X106568571Y-68573333D01*
X106806666Y-68573333D01*
X106901904Y-68620952D01*
X106949523Y-68668571D01*
X106997142Y-68763809D01*
X106997142Y-69001904D01*
X106949523Y-69097142D01*
X106901904Y-69144761D01*
X106806666Y-69192380D01*
X106568571Y-69192380D01*
X106473333Y-69144761D01*
X106425714Y-69097142D01*
X107282857Y-68192380D02*
X107616190Y-69192380D01*
X107949523Y-68192380D01*
D11*
X100330000Y-82550000D02*
X120650000Y-82550000D01*
X100330000Y-62230000D02*
X101600000Y-62230000D01*
X100330000Y-64770000D02*
X100330000Y-62230000D01*
X100330000Y-69850000D02*
X100330000Y-67310000D01*
D10*
X106878095Y-65740000D02*
X106782857Y-65692380D01*
X106640000Y-65692380D01*
X106497142Y-65740000D01*
X106401904Y-65835238D01*
X106354285Y-65930476D01*
X106306666Y-66120952D01*
X106306666Y-66263809D01*
X106354285Y-66454285D01*
X106401904Y-66549523D01*
X106497142Y-66644761D01*
X106640000Y-66692380D01*
X106735238Y-66692380D01*
X106878095Y-66644761D01*
X106925714Y-66597142D01*
X106925714Y-66263809D01*
X106735238Y-66263809D01*
X107354285Y-66692380D02*
X107354285Y-65692380D01*
X107925714Y-66692380D01*
X107925714Y-65692380D01*
X108401904Y-66692380D02*
X108401904Y-65692380D01*
X108640000Y-65692380D01*
X108782857Y-65740000D01*
X108878095Y-65835238D01*
X108925714Y-65930476D01*
X108973333Y-66120952D01*
X108973333Y-66263809D01*
X108925714Y-66454285D01*
X108878095Y-66549523D01*
X108782857Y-66644761D01*
X108640000Y-66692380D01*
X108401904Y-66692380D01*
D11*
X120650000Y-62230000D02*
X120650000Y-82550000D01*
X101600000Y-62230000D02*
X120650000Y-62230000D01*
X100330000Y-80010000D02*
X100330000Y-82550000D01*
X100330000Y-64770000D02*
X100330000Y-67310000D01*
X100330000Y-80010000D02*
X100330000Y-72390000D01*
D12*
X102306666Y-71013809D02*
X102330476Y-70990000D01*
X102378095Y-70966190D01*
X102497142Y-70966190D01*
X102544761Y-70990000D01*
X102568571Y-71013809D01*
X102592380Y-71061428D01*
X102592380Y-71109047D01*
X102568571Y-71180476D01*
X102282857Y-71466190D01*
X102592380Y-71466190D01*
X102901904Y-70966190D02*
X102949523Y-70966190D01*
X102997142Y-70990000D01*
X103020952Y-71013809D01*
X103044761Y-71061428D01*
X103068571Y-71156666D01*
X103068571Y-71275714D01*
X103044761Y-71370952D01*
X103020952Y-71418571D01*
X102997142Y-71442380D01*
X102949523Y-71466190D01*
X102901904Y-71466190D01*
X102854285Y-71442380D01*
X102830476Y-71418571D01*
X102806666Y-71370952D01*
X102782857Y-71275714D01*
X102782857Y-71156666D01*
X102806666Y-71061428D01*
X102830476Y-71013809D01*
X102854285Y-70990000D01*
X102901904Y-70966190D01*
X103259047Y-71013809D02*
X103282857Y-70990000D01*
X103330476Y-70966190D01*
X103449523Y-70966190D01*
X103497142Y-70990000D01*
X103520952Y-71013809D01*
X103544761Y-71061428D01*
X103544761Y-71109047D01*
X103520952Y-71180476D01*
X103235238Y-71466190D01*
X103544761Y-71466190D01*
X104020952Y-71466190D02*
X103735238Y-71466190D01*
X103878095Y-71466190D02*
X103878095Y-70966190D01*
X103830476Y-71037619D01*
X103782857Y-71085238D01*
X103735238Y-71109047D01*
X104592380Y-70942380D02*
X104163809Y-71585238D01*
X104854285Y-70966190D02*
X104901904Y-70966190D01*
X104949523Y-70990000D01*
X104973333Y-71013809D01*
X104997142Y-71061428D01*
X105020952Y-71156666D01*
X105020952Y-71275714D01*
X104997142Y-71370952D01*
X104973333Y-71418571D01*
X104949523Y-71442380D01*
X104901904Y-71466190D01*
X104854285Y-71466190D01*
X104806666Y-71442380D01*
X104782857Y-71418571D01*
X104759047Y-71370952D01*
X104735238Y-71275714D01*
X104735238Y-71156666D01*
X104759047Y-71061428D01*
X104782857Y-71013809D01*
X104806666Y-70990000D01*
X104854285Y-70966190D01*
X105449523Y-70966190D02*
X105354285Y-70966190D01*
X105306666Y-70990000D01*
X105282857Y-71013809D01*
X105235238Y-71085238D01*
X105211428Y-71180476D01*
X105211428Y-71370952D01*
X105235238Y-71418571D01*
X105259047Y-71442380D01*
X105306666Y-71466190D01*
X105401904Y-71466190D01*
X105449523Y-71442380D01*
X105473333Y-71418571D01*
X105497142Y-71370952D01*
X105497142Y-71251904D01*
X105473333Y-71204285D01*
X105449523Y-71180476D01*
X105401904Y-71156666D01*
X105306666Y-71156666D01*
X105259047Y-71180476D01*
X105235238Y-71204285D01*
X105211428Y-71251904D01*
X106068571Y-70942380D02*
X105640000Y-71585238D01*
X106330476Y-70966190D02*
X106378095Y-70966190D01*
X106425714Y-70990000D01*
X106449523Y-71013809D01*
X106473333Y-71061428D01*
X106497142Y-71156666D01*
X106497142Y-71275714D01*
X106473333Y-71370952D01*
X106449523Y-71418571D01*
X106425714Y-71442380D01*
X106378095Y-71466190D01*
X106330476Y-71466190D01*
X106282857Y-71442380D01*
X106259047Y-71418571D01*
X106235238Y-71370952D01*
X106211428Y-71275714D01*
X106211428Y-71156666D01*
X106235238Y-71061428D01*
X106259047Y-71013809D01*
X106282857Y-70990000D01*
X106330476Y-70966190D01*
X106973333Y-71466190D02*
X106687619Y-71466190D01*
X106830476Y-71466190D02*
X106830476Y-70966190D01*
X106782857Y-71037619D01*
X106735238Y-71085238D01*
X106687619Y-71109047D01*
D13*
%TO.C,J2*%
X105470000Y-64710000D02*
X102810000Y-64710000D01*
X105470000Y-64770000D02*
X105470000Y-64710000D01*
X102810000Y-64770000D02*
X102810000Y-64710000D01*
X105470000Y-64770000D02*
X102810000Y-64770000D01*
X105470000Y-66040000D02*
X105470000Y-67370000D01*
X105470000Y-67370000D02*
X104140000Y-67370000D01*
%TO.C,J3*%
X105470000Y-67250000D02*
X102810000Y-67250000D01*
X105470000Y-67310000D02*
X105470000Y-67250000D01*
X102810000Y-67310000D02*
X102810000Y-67250000D01*
X105470000Y-67310000D02*
X102810000Y-67310000D01*
X105470000Y-68580000D02*
X105470000Y-69910000D01*
X105470000Y-69910000D02*
X104140000Y-69910000D01*
%TO.C,J1*%
X105470000Y-62170000D02*
X102810000Y-62170000D01*
X105470000Y-62230000D02*
X105470000Y-62170000D01*
X102810000Y-62230000D02*
X102810000Y-62170000D01*
X105470000Y-62230000D02*
X102810000Y-62230000D01*
X105470000Y-63500000D02*
X105470000Y-64830000D01*
X105470000Y-64830000D02*
X104140000Y-64830000D01*
%TO.C,R1*%
X115368733Y-76230000D02*
X115711267Y-76230000D01*
X115368733Y-77250000D02*
X115711267Y-77250000D01*
%TO.C,J6*%
X105470000Y-77410000D02*
X102810000Y-77410000D01*
X105470000Y-77470000D02*
X105470000Y-77410000D01*
X102810000Y-77470000D02*
X102810000Y-77410000D01*
X105470000Y-77470000D02*
X102810000Y-77470000D01*
X105470000Y-78740000D02*
X105470000Y-80070000D01*
X105470000Y-80070000D02*
X104140000Y-80070000D01*
%TO.C,C1*%
X111880580Y-74150000D02*
X111599420Y-74150000D01*
X111880580Y-73130000D02*
X111599420Y-73130000D01*
%TO.C,J7*%
X105470000Y-79950000D02*
X102810000Y-79950000D01*
X105470000Y-80010000D02*
X105470000Y-79950000D01*
X102810000Y-80010000D02*
X102810000Y-79950000D01*
X105470000Y-80010000D02*
X102810000Y-80010000D01*
X105470000Y-81280000D02*
X105470000Y-82610000D01*
X105470000Y-82610000D02*
X104140000Y-82610000D01*
%TO.C,J4*%
X105470000Y-72330000D02*
X102810000Y-72330000D01*
X105470000Y-72390000D02*
X105470000Y-72330000D01*
X102810000Y-72390000D02*
X102810000Y-72330000D01*
X105470000Y-72390000D02*
X102810000Y-72390000D01*
X105470000Y-73660000D02*
X105470000Y-74990000D01*
X105470000Y-74990000D02*
X104140000Y-74990000D01*
%TO.C,J5*%
X105470000Y-74870000D02*
X102810000Y-74870000D01*
X105470000Y-74930000D02*
X105470000Y-74870000D01*
X102810000Y-74930000D02*
X102810000Y-74870000D01*
X105470000Y-74930000D02*
X102810000Y-74930000D01*
X105470000Y-76200000D02*
X105470000Y-77530000D01*
X105470000Y-77530000D02*
X104140000Y-77530000D01*
%TO.C,C2*%
X111651252Y-72300000D02*
X110228748Y-72300000D01*
X111651252Y-69580000D02*
X110228748Y-69580000D01*
%TO.C,C3*%
X116999420Y-74530000D02*
X117280580Y-74530000D01*
X116999420Y-75550000D02*
X117280580Y-75550000D01*
%TO.C,C4*%
X115050000Y-78999420D02*
X115050000Y-79280580D01*
X114030000Y-78999420D02*
X114030000Y-79280580D01*
%TO.C,U1*%
X109840000Y-80000000D02*
X111790000Y-80000000D01*
X109840000Y-80000000D02*
X107890000Y-80000000D01*
X109840000Y-74880000D02*
X111790000Y-74880000D01*
X109840000Y-74880000D02*
X106390000Y-74880000D01*
%TD*%
M02*
