G04 #@! TF.GenerationSoftware,KiCad,Pcbnew,(6.0.8)*
G04 #@! TF.CreationDate,2023-05-03T15:07:12+02:00*
G04 #@! TF.ProjectId,18_Mesure_Courant,31385f4d-6573-4757-9265-5f436f757261,rev?*
G04 #@! TF.SameCoordinates,Original*
G04 #@! TF.FileFunction,Legend,Bot*
G04 #@! TF.FilePolarity,Positive*
%FSLAX46Y46*%
G04 Gerber Fmt 4.6, Leading zero omitted, Abs format (unit mm)*
G04 Created by KiCad (PCBNEW (6.0.8)) date 2023-05-03 15:07:12*
%MOMM*%
%LPD*%
G01*
G04 APERTURE LIST*
G04 Aperture macros list*
%AMFreePoly0*
4,1,19,2.294749,0.844703,2.473926,0.804652,2.640323,0.727060,2.786177,0.615546,2.904682,0.475314,2.990310,0.312906,3.039066,0.135899,3.048675,-0.047448,3.018688,-0.228582,2.950505,-0.399051,2.847308,-0.550902,2.713909,-0.677050,2.556534,-0.771611,2.382525,-0.830171,2.200000,-0.850000,-0.850000,-0.850000,-0.850000,0.850000,2.200000,0.850000,2.294749,0.844703,2.294749,0.844703,
$1*%
G04 Aperture macros list end*
%ADD10C,0.125000*%
%ADD11C,0.150000*%
%ADD12FreePoly0,180.000000*%
%ADD13C,1.524000*%
G04 APERTURE END LIST*
D10*
X113438809Y-70056666D02*
X113415000Y-70080476D01*
X113391190Y-70128095D01*
X113391190Y-70247142D01*
X113415000Y-70294761D01*
X113438809Y-70318571D01*
X113486428Y-70342380D01*
X113534047Y-70342380D01*
X113605476Y-70318571D01*
X113891190Y-70032857D01*
X113891190Y-70342380D01*
X113391190Y-70651904D02*
X113391190Y-70699523D01*
X113415000Y-70747142D01*
X113438809Y-70770952D01*
X113486428Y-70794761D01*
X113581666Y-70818571D01*
X113700714Y-70818571D01*
X113795952Y-70794761D01*
X113843571Y-70770952D01*
X113867380Y-70747142D01*
X113891190Y-70699523D01*
X113891190Y-70651904D01*
X113867380Y-70604285D01*
X113843571Y-70580476D01*
X113795952Y-70556666D01*
X113700714Y-70532857D01*
X113581666Y-70532857D01*
X113486428Y-70556666D01*
X113438809Y-70580476D01*
X113415000Y-70604285D01*
X113391190Y-70651904D01*
X113438809Y-71009047D02*
X113415000Y-71032857D01*
X113391190Y-71080476D01*
X113391190Y-71199523D01*
X113415000Y-71247142D01*
X113438809Y-71270952D01*
X113486428Y-71294761D01*
X113534047Y-71294761D01*
X113605476Y-71270952D01*
X113891190Y-70985238D01*
X113891190Y-71294761D01*
X113391190Y-71461428D02*
X113391190Y-71770952D01*
X113581666Y-71604285D01*
X113581666Y-71675714D01*
X113605476Y-71723333D01*
X113629285Y-71747142D01*
X113676904Y-71770952D01*
X113795952Y-71770952D01*
X113843571Y-71747142D01*
X113867380Y-71723333D01*
X113891190Y-71675714D01*
X113891190Y-71532857D01*
X113867380Y-71485238D01*
X113843571Y-71461428D01*
X113367380Y-72342380D02*
X114010238Y-71913809D01*
X113391190Y-72604285D02*
X113391190Y-72651904D01*
X113415000Y-72699523D01*
X113438809Y-72723333D01*
X113486428Y-72747142D01*
X113581666Y-72770952D01*
X113700714Y-72770952D01*
X113795952Y-72747142D01*
X113843571Y-72723333D01*
X113867380Y-72699523D01*
X113891190Y-72651904D01*
X113891190Y-72604285D01*
X113867380Y-72556666D01*
X113843571Y-72532857D01*
X113795952Y-72509047D01*
X113700714Y-72485238D01*
X113581666Y-72485238D01*
X113486428Y-72509047D01*
X113438809Y-72532857D01*
X113415000Y-72556666D01*
X113391190Y-72604285D01*
X113391190Y-73223333D02*
X113391190Y-72985238D01*
X113629285Y-72961428D01*
X113605476Y-72985238D01*
X113581666Y-73032857D01*
X113581666Y-73151904D01*
X113605476Y-73199523D01*
X113629285Y-73223333D01*
X113676904Y-73247142D01*
X113795952Y-73247142D01*
X113843571Y-73223333D01*
X113867380Y-73199523D01*
X113891190Y-73151904D01*
X113891190Y-73032857D01*
X113867380Y-72985238D01*
X113843571Y-72961428D01*
X113367380Y-73818571D02*
X114010238Y-73390000D01*
X113391190Y-74080476D02*
X113391190Y-74128095D01*
X113415000Y-74175714D01*
X113438809Y-74199523D01*
X113486428Y-74223333D01*
X113581666Y-74247142D01*
X113700714Y-74247142D01*
X113795952Y-74223333D01*
X113843571Y-74199523D01*
X113867380Y-74175714D01*
X113891190Y-74128095D01*
X113891190Y-74080476D01*
X113867380Y-74032857D01*
X113843571Y-74009047D01*
X113795952Y-73985238D01*
X113700714Y-73961428D01*
X113581666Y-73961428D01*
X113486428Y-73985238D01*
X113438809Y-74009047D01*
X113415000Y-74032857D01*
X113391190Y-74080476D01*
X113438809Y-74437619D02*
X113415000Y-74461428D01*
X113391190Y-74509047D01*
X113391190Y-74628095D01*
X113415000Y-74675714D01*
X113438809Y-74699523D01*
X113486428Y-74723333D01*
X113534047Y-74723333D01*
X113605476Y-74699523D01*
X113891190Y-74413809D01*
X113891190Y-74723333D01*
D11*
X106553095Y-69080000D02*
X106457857Y-69127619D01*
X106315000Y-69127619D01*
X106172142Y-69080000D01*
X106076904Y-68984761D01*
X106029285Y-68889523D01*
X105981666Y-68699047D01*
X105981666Y-68556190D01*
X106029285Y-68365714D01*
X106076904Y-68270476D01*
X106172142Y-68175238D01*
X106315000Y-68127619D01*
X106410238Y-68127619D01*
X106553095Y-68175238D01*
X106600714Y-68222857D01*
X106600714Y-68556190D01*
X106410238Y-68556190D01*
X107029285Y-68127619D02*
X107029285Y-69127619D01*
X107600714Y-68127619D01*
X107600714Y-69127619D01*
X108076904Y-68127619D02*
X108076904Y-69127619D01*
X108315000Y-69127619D01*
X108457857Y-69080000D01*
X108553095Y-68984761D01*
X108600714Y-68889523D01*
X108648333Y-68699047D01*
X108648333Y-68556190D01*
X108600714Y-68365714D01*
X108553095Y-68270476D01*
X108457857Y-68175238D01*
X108315000Y-68127619D01*
X108076904Y-68127619D01*
X106489523Y-71667619D02*
X106013333Y-71667619D01*
X105965714Y-71191428D01*
X106013333Y-71239047D01*
X106108571Y-71286666D01*
X106346666Y-71286666D01*
X106441904Y-71239047D01*
X106489523Y-71191428D01*
X106537142Y-71096190D01*
X106537142Y-70858095D01*
X106489523Y-70762857D01*
X106441904Y-70715238D01*
X106346666Y-70667619D01*
X106108571Y-70667619D01*
X106013333Y-70715238D01*
X105965714Y-70762857D01*
X106822857Y-71667619D02*
X107156190Y-70667619D01*
X107489523Y-71667619D01*
X106116190Y-73287619D02*
X106116190Y-74287619D01*
X106592380Y-73287619D02*
X106592380Y-74287619D01*
X107163809Y-73287619D01*
X107163809Y-74287619D01*
X106240000Y-81787619D02*
X106430476Y-81787619D01*
X106525714Y-81740000D01*
X106620952Y-81644761D01*
X106668571Y-81454285D01*
X106668571Y-81120952D01*
X106620952Y-80930476D01*
X106525714Y-80835238D01*
X106430476Y-80787619D01*
X106240000Y-80787619D01*
X106144761Y-80835238D01*
X106049523Y-80930476D01*
X106001904Y-81120952D01*
X106001904Y-81454285D01*
X106049523Y-81644761D01*
X106144761Y-81740000D01*
X106240000Y-81787619D01*
X107097142Y-81787619D02*
X107097142Y-80978095D01*
X107144761Y-80882857D01*
X107192380Y-80835238D01*
X107287619Y-80787619D01*
X107478095Y-80787619D01*
X107573333Y-80835238D01*
X107620952Y-80882857D01*
X107668571Y-80978095D01*
X107668571Y-81787619D01*
X108001904Y-81787619D02*
X108573333Y-81787619D01*
X108287619Y-80787619D02*
X108287619Y-81787619D01*
X105815000Y-65587619D02*
X105815000Y-66587619D01*
X106291190Y-65587619D02*
X106291190Y-66254285D01*
X106291190Y-66159047D02*
X106338809Y-66206666D01*
X106434047Y-66254285D01*
X106576904Y-66254285D01*
X106672142Y-66206666D01*
X106719761Y-66111428D01*
X106719761Y-65587619D01*
X106719761Y-66111428D02*
X106767380Y-66206666D01*
X106862619Y-66254285D01*
X107005476Y-66254285D01*
X107100714Y-66206666D01*
X107148333Y-66111428D01*
X107148333Y-65587619D01*
X108005476Y-65635238D02*
X107910238Y-65587619D01*
X107719761Y-65587619D01*
X107624523Y-65635238D01*
X107576904Y-65730476D01*
X107576904Y-66111428D01*
X107624523Y-66206666D01*
X107719761Y-66254285D01*
X107910238Y-66254285D01*
X108005476Y-66206666D01*
X108053095Y-66111428D01*
X108053095Y-66016190D01*
X107576904Y-65920952D01*
X108434047Y-65635238D02*
X108529285Y-65587619D01*
X108719761Y-65587619D01*
X108815000Y-65635238D01*
X108862619Y-65730476D01*
X108862619Y-65778095D01*
X108815000Y-65873333D01*
X108719761Y-65920952D01*
X108576904Y-65920952D01*
X108481666Y-65968571D01*
X108434047Y-66063809D01*
X108434047Y-66111428D01*
X108481666Y-66206666D01*
X108576904Y-66254285D01*
X108719761Y-66254285D01*
X108815000Y-66206666D01*
X106116190Y-75787619D02*
X106116190Y-76787619D01*
X106592380Y-75787619D02*
X106592380Y-76787619D01*
X107163809Y-75787619D01*
X107163809Y-76787619D01*
X106140000Y-79287619D02*
X106330476Y-79287619D01*
X106425714Y-79240000D01*
X106520952Y-79144761D01*
X106568571Y-78954285D01*
X106568571Y-78620952D01*
X106520952Y-78430476D01*
X106425714Y-78335238D01*
X106330476Y-78287619D01*
X106140000Y-78287619D01*
X106044761Y-78335238D01*
X105949523Y-78430476D01*
X105901904Y-78620952D01*
X105901904Y-78954285D01*
X105949523Y-79144761D01*
X106044761Y-79240000D01*
X106140000Y-79287619D01*
X106997142Y-79287619D02*
X106997142Y-78478095D01*
X107044761Y-78382857D01*
X107092380Y-78335238D01*
X107187619Y-78287619D01*
X107378095Y-78287619D01*
X107473333Y-78335238D01*
X107520952Y-78382857D01*
X107568571Y-78478095D01*
X107568571Y-79287619D01*
X107901904Y-79287619D02*
X108473333Y-79287619D01*
X108187619Y-78287619D02*
X108187619Y-79287619D01*
X112167142Y-69122857D02*
X112167142Y-68608571D01*
X112167142Y-68865714D02*
X111267142Y-68865714D01*
X111395714Y-68780000D01*
X111481428Y-68694285D01*
X111524285Y-68608571D01*
X111652857Y-69637142D02*
X111610000Y-69551428D01*
X111567142Y-69508571D01*
X111481428Y-69465714D01*
X111438571Y-69465714D01*
X111352857Y-69508571D01*
X111310000Y-69551428D01*
X111267142Y-69637142D01*
X111267142Y-69808571D01*
X111310000Y-69894285D01*
X111352857Y-69937142D01*
X111438571Y-69980000D01*
X111481428Y-69980000D01*
X111567142Y-69937142D01*
X111610000Y-69894285D01*
X111652857Y-69808571D01*
X111652857Y-69637142D01*
X111695714Y-69551428D01*
X111738571Y-69508571D01*
X111824285Y-69465714D01*
X111995714Y-69465714D01*
X112081428Y-69508571D01*
X112124285Y-69551428D01*
X112167142Y-69637142D01*
X112167142Y-69808571D01*
X112124285Y-69894285D01*
X112081428Y-69937142D01*
X111995714Y-69980000D01*
X111824285Y-69980000D01*
X111738571Y-69937142D01*
X111695714Y-69894285D01*
X111652857Y-69808571D01*
X112252857Y-70151428D02*
X112252857Y-70837142D01*
X112167142Y-71051428D02*
X111267142Y-71051428D01*
X111910000Y-71351428D01*
X111267142Y-71651428D01*
X112167142Y-71651428D01*
X112124285Y-72422857D02*
X112167142Y-72337142D01*
X112167142Y-72165714D01*
X112124285Y-72080000D01*
X112038571Y-72037142D01*
X111695714Y-72037142D01*
X111610000Y-72080000D01*
X111567142Y-72165714D01*
X111567142Y-72337142D01*
X111610000Y-72422857D01*
X111695714Y-72465714D01*
X111781428Y-72465714D01*
X111867142Y-72037142D01*
X112124285Y-72808571D02*
X112167142Y-72894285D01*
X112167142Y-73065714D01*
X112124285Y-73151428D01*
X112038571Y-73194285D01*
X111995714Y-73194285D01*
X111910000Y-73151428D01*
X111867142Y-73065714D01*
X111867142Y-72937142D01*
X111824285Y-72851428D01*
X111738571Y-72808571D01*
X111695714Y-72808571D01*
X111610000Y-72851428D01*
X111567142Y-72937142D01*
X111567142Y-73065714D01*
X111610000Y-73151428D01*
X111567142Y-73965714D02*
X112167142Y-73965714D01*
X111567142Y-73580000D02*
X112038571Y-73580000D01*
X112124285Y-73622857D01*
X112167142Y-73708571D01*
X112167142Y-73837142D01*
X112124285Y-73922857D01*
X112081428Y-73965714D01*
X112167142Y-74394285D02*
X111567142Y-74394285D01*
X111738571Y-74394285D02*
X111652857Y-74437142D01*
X111610000Y-74480000D01*
X111567142Y-74565714D01*
X111567142Y-74651428D01*
X112124285Y-75294285D02*
X112167142Y-75208571D01*
X112167142Y-75037142D01*
X112124285Y-74951428D01*
X112038571Y-74908571D01*
X111695714Y-74908571D01*
X111610000Y-74951428D01*
X111567142Y-75037142D01*
X111567142Y-75208571D01*
X111610000Y-75294285D01*
X111695714Y-75337142D01*
X111781428Y-75337142D01*
X111867142Y-74908571D01*
X112252857Y-75508571D02*
X112252857Y-76194285D01*
X112081428Y-76922857D02*
X112124285Y-76880000D01*
X112167142Y-76751428D01*
X112167142Y-76665714D01*
X112124285Y-76537142D01*
X112038571Y-76451428D01*
X111952857Y-76408571D01*
X111781428Y-76365714D01*
X111652857Y-76365714D01*
X111481428Y-76408571D01*
X111395714Y-76451428D01*
X111310000Y-76537142D01*
X111267142Y-76665714D01*
X111267142Y-76751428D01*
X111310000Y-76880000D01*
X111352857Y-76922857D01*
X112167142Y-77437142D02*
X112124285Y-77351428D01*
X112081428Y-77308571D01*
X111995714Y-77265714D01*
X111738571Y-77265714D01*
X111652857Y-77308571D01*
X111610000Y-77351428D01*
X111567142Y-77437142D01*
X111567142Y-77565714D01*
X111610000Y-77651428D01*
X111652857Y-77694285D01*
X111738571Y-77737142D01*
X111995714Y-77737142D01*
X112081428Y-77694285D01*
X112124285Y-77651428D01*
X112167142Y-77565714D01*
X112167142Y-77437142D01*
X111567142Y-78508571D02*
X112167142Y-78508571D01*
X111567142Y-78122857D02*
X112038571Y-78122857D01*
X112124285Y-78165714D01*
X112167142Y-78251428D01*
X112167142Y-78380000D01*
X112124285Y-78465714D01*
X112081428Y-78508571D01*
X112167142Y-78937142D02*
X111567142Y-78937142D01*
X111738571Y-78937142D02*
X111652857Y-78980000D01*
X111610000Y-79022857D01*
X111567142Y-79108571D01*
X111567142Y-79194285D01*
X112167142Y-79880000D02*
X111695714Y-79880000D01*
X111610000Y-79837142D01*
X111567142Y-79751428D01*
X111567142Y-79580000D01*
X111610000Y-79494285D01*
X112124285Y-79880000D02*
X112167142Y-79794285D01*
X112167142Y-79580000D01*
X112124285Y-79494285D01*
X112038571Y-79451428D01*
X111952857Y-79451428D01*
X111867142Y-79494285D01*
X111824285Y-79580000D01*
X111824285Y-79794285D01*
X111781428Y-79880000D01*
X111567142Y-80308571D02*
X112167142Y-80308571D01*
X111652857Y-80308571D02*
X111610000Y-80351428D01*
X111567142Y-80437142D01*
X111567142Y-80565714D01*
X111610000Y-80651428D01*
X111695714Y-80694285D01*
X112167142Y-80694285D01*
X111567142Y-80994285D02*
X111567142Y-81337142D01*
X111267142Y-81122857D02*
X112038571Y-81122857D01*
X112124285Y-81165714D01*
X112167142Y-81251428D01*
X112167142Y-81337142D01*
%LPC*%
D12*
X104140000Y-66040000D03*
D13*
X101600000Y-66040000D03*
X101600000Y-68580000D03*
D12*
X104140000Y-68580000D03*
D13*
X101600000Y-71120000D03*
D12*
X104140000Y-71120000D03*
X104140000Y-73660000D03*
D13*
X101600000Y-73660000D03*
X101600000Y-76200000D03*
D12*
X104140000Y-76200000D03*
X104140000Y-78740000D03*
D13*
X101600000Y-78740000D03*
X101600000Y-81280000D03*
D12*
X104140000Y-81280000D03*
M02*
