M48
; DRILL file {KiCad (5.1.9)-1} date 06/01/21 15:36:49
; FORMAT={-:-/ absolute / inch / decimal}
; #@! TF.CreationDate,2021-06-01T15:36:49+02:00
; #@! TF.GenerationSoftware,Kicad,Pcbnew,(5.1.9)-1
; #@! TF.FileFunction,Plated,1,2,PTH
FMAT,2
INCH
T1C0.0236
T2C0.0300
T3C0.0394
%
G90
G05
T1
X4.1984Y-2.5488
X4.1984Y-2.6472
X4.1984Y-2.7457
X4.2575Y-2.7929
X4.2772Y-2.5488
X4.2772Y-2.6472
X4.3087Y-2.8992
X4.3559Y-2.5488
X4.3559Y-2.6472
X4.3953Y-3.1984
X4.4346Y-2.5488
X4.4346Y-2.6472
X4.4543Y-3.1984
X4.4937Y-2.6079
X4.5094Y-3.1984
X4.5331Y-2.5094
X4.5331Y-2.6669
X4.5331Y-2.7457
X4.5331Y-2.8244
X4.5331Y-2.9031
X4.5724Y-3.0803
X4.5724Y-3.1984
X4.6118Y-2.5094
X4.6118Y-2.5882
X4.6315Y-2.6669
X4.6315Y-2.7457
X4.6315Y-2.8244
X4.6315Y-2.9031
X4.6315Y-3.0803
X4.6315Y-3.1984
X4.6906Y-2.5094
X4.6906Y-2.6079
X4.6906Y-2.7063
X4.6906Y-2.785
X4.6906Y-2.8638
X4.6906Y-3.0213
X4.6906Y-3.0803
X4.6906Y-3.1394
X4.6906Y-3.1984
X4.6945Y-2.9543
T2
X4.0Y-2.5
X4.0Y-2.6
X4.0Y-2.7
X4.0Y-2.9
X4.0Y-3.0
X4.0Y-3.1
X4.0Y-3.2
T3
X4.1Y-2.5
X4.1Y-2.6
X4.1Y-2.7
X4.1Y-2.9
X4.1Y-3.0
X4.1Y-3.1
X4.1Y-3.2
T0
M30
