%TF.GenerationSoftware,KiCad,Pcbnew,(5.1.9)-1*%
%TF.CreationDate,2021-06-01T15:36:46+02:00*%
%TF.ProjectId,18_Mesure_Courant,31385f4d-6573-4757-9265-5f436f757261,rev?*%
%TF.SameCoordinates,Original*%
%TF.FileFunction,Copper,L2,Bot*%
%TF.FilePolarity,Positive*%
%FSLAX46Y46*%
G04 Gerber Fmt 4.6, Leading zero omitted, Abs format (unit mm)*
G04 Created by KiCad (PCBNEW (5.1.9)-1) date 2021-06-01 15:36:46*
%MOMM*%
%LPD*%
G01*
G04 APERTURE LIST*
%TA.AperFunction,Profile*%
%ADD10C,0.050000*%
%TD*%
%TA.AperFunction,ComponentPad*%
%ADD11C,1.524000*%
%TD*%
%TA.AperFunction,ComponentPad*%
%ADD12C,0.100000*%
%TD*%
%TA.AperFunction,ViaPad*%
%ADD13C,1.000000*%
%TD*%
%TA.AperFunction,Conductor*%
%ADD14C,0.400000*%
%TD*%
%TA.AperFunction,Conductor*%
%ADD15C,0.254000*%
%TD*%
%TA.AperFunction,Conductor*%
%ADD16C,0.100000*%
%TD*%
G04 APERTURE END LIST*
D10*
X101600000Y-69850000D02*
X100330000Y-69850000D01*
X101600000Y-72390000D02*
X101600000Y-69850000D01*
X100330000Y-72390000D02*
X101600000Y-72390000D01*
X100330000Y-82550000D02*
X120650000Y-82550000D01*
X100330000Y-62230000D02*
X101600000Y-62230000D01*
X100330000Y-64770000D02*
X100330000Y-62230000D01*
X100330000Y-69850000D02*
X100330000Y-67310000D01*
X120650000Y-62230000D02*
X120650000Y-82550000D01*
X101600000Y-62230000D02*
X120650000Y-62230000D01*
X100330000Y-80010000D02*
X100330000Y-82550000D01*
X100330000Y-64770000D02*
X100330000Y-67310000D01*
X100330000Y-80010000D02*
X100330000Y-72390000D01*
D11*
%TO.P,J2,1*%
%TO.N,GND*%
X101600000Y-66040000D03*
%TA.AperFunction,ComponentPad*%
D12*
G36*
X101928132Y-66889917D02*
G01*
X101845251Y-66884703D01*
X101763275Y-66871425D01*
X101682986Y-66850212D01*
X101605149Y-66821265D01*
X101530509Y-66784861D01*
X101459778Y-66741346D01*
X101393631Y-66691138D01*
X101332698Y-66634714D01*
X101277563Y-66572613D01*
X101228750Y-66505429D01*
X101186727Y-66433802D01*
X101151894Y-66358416D01*
X101124583Y-66279990D01*
X101105056Y-66199274D01*
X101093498Y-66117038D01*
X101090021Y-66034066D01*
X101094656Y-65951151D01*
X101107361Y-65869084D01*
X101128013Y-65788648D01*
X101156416Y-65710612D01*
X101192299Y-65635719D01*
X101235318Y-65564686D01*
X101285064Y-65498190D01*
X101341061Y-65436865D01*
X101402775Y-65381297D01*
X101469617Y-65332017D01*
X101540949Y-65289495D01*
X101616090Y-65254136D01*
X101694323Y-65226278D01*
X101774901Y-65206188D01*
X101857055Y-65194057D01*
X101940000Y-65190000D01*
X104990000Y-65190000D01*
X104990000Y-66890000D01*
X101940000Y-66890000D01*
X101928132Y-66889917D01*
G37*
%TD.AperFunction*%
%TD*%
D11*
%TO.P,J3,1*%
%TO.N,5V*%
X101600000Y-68580000D03*
%TA.AperFunction,ComponentPad*%
D12*
G36*
X101928132Y-69429917D02*
G01*
X101845251Y-69424703D01*
X101763275Y-69411425D01*
X101682986Y-69390212D01*
X101605149Y-69361265D01*
X101530509Y-69324861D01*
X101459778Y-69281346D01*
X101393631Y-69231138D01*
X101332698Y-69174714D01*
X101277563Y-69112613D01*
X101228750Y-69045429D01*
X101186727Y-68973802D01*
X101151894Y-68898416D01*
X101124583Y-68819990D01*
X101105056Y-68739274D01*
X101093498Y-68657038D01*
X101090021Y-68574066D01*
X101094656Y-68491151D01*
X101107361Y-68409084D01*
X101128013Y-68328648D01*
X101156416Y-68250612D01*
X101192299Y-68175719D01*
X101235318Y-68104686D01*
X101285064Y-68038190D01*
X101341061Y-67976865D01*
X101402775Y-67921297D01*
X101469617Y-67872017D01*
X101540949Y-67829495D01*
X101616090Y-67794136D01*
X101694323Y-67766278D01*
X101774901Y-67746188D01*
X101857055Y-67734057D01*
X101940000Y-67730000D01*
X104990000Y-67730000D01*
X104990000Y-69430000D01*
X101940000Y-69430000D01*
X101928132Y-69429917D01*
G37*
%TD.AperFunction*%
%TD*%
D11*
%TO.P,J1,1*%
%TO.N,I_mes*%
X101600000Y-63500000D03*
%TA.AperFunction,ComponentPad*%
D12*
G36*
X101928132Y-64349917D02*
G01*
X101845251Y-64344703D01*
X101763275Y-64331425D01*
X101682986Y-64310212D01*
X101605149Y-64281265D01*
X101530509Y-64244861D01*
X101459778Y-64201346D01*
X101393631Y-64151138D01*
X101332698Y-64094714D01*
X101277563Y-64032613D01*
X101228750Y-63965429D01*
X101186727Y-63893802D01*
X101151894Y-63818416D01*
X101124583Y-63739990D01*
X101105056Y-63659274D01*
X101093498Y-63577038D01*
X101090021Y-63494066D01*
X101094656Y-63411151D01*
X101107361Y-63329084D01*
X101128013Y-63248648D01*
X101156416Y-63170612D01*
X101192299Y-63095719D01*
X101235318Y-63024686D01*
X101285064Y-62958190D01*
X101341061Y-62896865D01*
X101402775Y-62841297D01*
X101469617Y-62792017D01*
X101540949Y-62749495D01*
X101616090Y-62714136D01*
X101694323Y-62686278D01*
X101774901Y-62666188D01*
X101857055Y-62654057D01*
X101940000Y-62650000D01*
X104990000Y-62650000D01*
X104990000Y-64350000D01*
X101940000Y-64350000D01*
X101928132Y-64349917D01*
G37*
%TD.AperFunction*%
%TD*%
D11*
%TO.P,J6,1*%
%TO.N,P_OUT*%
X101600000Y-78740000D03*
%TA.AperFunction,ComponentPad*%
D12*
G36*
X101928132Y-79589917D02*
G01*
X101845251Y-79584703D01*
X101763275Y-79571425D01*
X101682986Y-79550212D01*
X101605149Y-79521265D01*
X101530509Y-79484861D01*
X101459778Y-79441346D01*
X101393631Y-79391138D01*
X101332698Y-79334714D01*
X101277563Y-79272613D01*
X101228750Y-79205429D01*
X101186727Y-79133802D01*
X101151894Y-79058416D01*
X101124583Y-78979990D01*
X101105056Y-78899274D01*
X101093498Y-78817038D01*
X101090021Y-78734066D01*
X101094656Y-78651151D01*
X101107361Y-78569084D01*
X101128013Y-78488648D01*
X101156416Y-78410612D01*
X101192299Y-78335719D01*
X101235318Y-78264686D01*
X101285064Y-78198190D01*
X101341061Y-78136865D01*
X101402775Y-78081297D01*
X101469617Y-78032017D01*
X101540949Y-77989495D01*
X101616090Y-77954136D01*
X101694323Y-77926278D01*
X101774901Y-77906188D01*
X101857055Y-77894057D01*
X101940000Y-77890000D01*
X104990000Y-77890000D01*
X104990000Y-79590000D01*
X101940000Y-79590000D01*
X101928132Y-79589917D01*
G37*
%TD.AperFunction*%
%TD*%
D11*
%TO.P,J7,1*%
%TO.N,P_OUT*%
X101600000Y-81280000D03*
%TA.AperFunction,ComponentPad*%
D12*
G36*
X101928132Y-82129917D02*
G01*
X101845251Y-82124703D01*
X101763275Y-82111425D01*
X101682986Y-82090212D01*
X101605149Y-82061265D01*
X101530509Y-82024861D01*
X101459778Y-81981346D01*
X101393631Y-81931138D01*
X101332698Y-81874714D01*
X101277563Y-81812613D01*
X101228750Y-81745429D01*
X101186727Y-81673802D01*
X101151894Y-81598416D01*
X101124583Y-81519990D01*
X101105056Y-81439274D01*
X101093498Y-81357038D01*
X101090021Y-81274066D01*
X101094656Y-81191151D01*
X101107361Y-81109084D01*
X101128013Y-81028648D01*
X101156416Y-80950612D01*
X101192299Y-80875719D01*
X101235318Y-80804686D01*
X101285064Y-80738190D01*
X101341061Y-80676865D01*
X101402775Y-80621297D01*
X101469617Y-80572017D01*
X101540949Y-80529495D01*
X101616090Y-80494136D01*
X101694323Y-80466278D01*
X101774901Y-80446188D01*
X101857055Y-80434057D01*
X101940000Y-80430000D01*
X104990000Y-80430000D01*
X104990000Y-82130000D01*
X101940000Y-82130000D01*
X101928132Y-82129917D01*
G37*
%TD.AperFunction*%
%TD*%
D11*
%TO.P,J4,1*%
%TO.N,P_IN*%
X101600000Y-73660000D03*
%TA.AperFunction,ComponentPad*%
D12*
G36*
X101928132Y-74509917D02*
G01*
X101845251Y-74504703D01*
X101763275Y-74491425D01*
X101682986Y-74470212D01*
X101605149Y-74441265D01*
X101530509Y-74404861D01*
X101459778Y-74361346D01*
X101393631Y-74311138D01*
X101332698Y-74254714D01*
X101277563Y-74192613D01*
X101228750Y-74125429D01*
X101186727Y-74053802D01*
X101151894Y-73978416D01*
X101124583Y-73899990D01*
X101105056Y-73819274D01*
X101093498Y-73737038D01*
X101090021Y-73654066D01*
X101094656Y-73571151D01*
X101107361Y-73489084D01*
X101128013Y-73408648D01*
X101156416Y-73330612D01*
X101192299Y-73255719D01*
X101235318Y-73184686D01*
X101285064Y-73118190D01*
X101341061Y-73056865D01*
X101402775Y-73001297D01*
X101469617Y-72952017D01*
X101540949Y-72909495D01*
X101616090Y-72874136D01*
X101694323Y-72846278D01*
X101774901Y-72826188D01*
X101857055Y-72814057D01*
X101940000Y-72810000D01*
X104990000Y-72810000D01*
X104990000Y-74510000D01*
X101940000Y-74510000D01*
X101928132Y-74509917D01*
G37*
%TD.AperFunction*%
%TD*%
D11*
%TO.P,J5,1*%
%TO.N,P_IN*%
X101600000Y-76200000D03*
%TA.AperFunction,ComponentPad*%
D12*
G36*
X101928132Y-77049917D02*
G01*
X101845251Y-77044703D01*
X101763275Y-77031425D01*
X101682986Y-77010212D01*
X101605149Y-76981265D01*
X101530509Y-76944861D01*
X101459778Y-76901346D01*
X101393631Y-76851138D01*
X101332698Y-76794714D01*
X101277563Y-76732613D01*
X101228750Y-76665429D01*
X101186727Y-76593802D01*
X101151894Y-76518416D01*
X101124583Y-76439990D01*
X101105056Y-76359274D01*
X101093498Y-76277038D01*
X101090021Y-76194066D01*
X101094656Y-76111151D01*
X101107361Y-76029084D01*
X101128013Y-75948648D01*
X101156416Y-75870612D01*
X101192299Y-75795719D01*
X101235318Y-75724686D01*
X101285064Y-75658190D01*
X101341061Y-75596865D01*
X101402775Y-75541297D01*
X101469617Y-75492017D01*
X101540949Y-75449495D01*
X101616090Y-75414136D01*
X101694323Y-75386278D01*
X101774901Y-75366188D01*
X101857055Y-75354057D01*
X101940000Y-75350000D01*
X104990000Y-75350000D01*
X104990000Y-77050000D01*
X101940000Y-77050000D01*
X101928132Y-77049917D01*
G37*
%TD.AperFunction*%
%TD*%
D13*
%TO.N,GND*%
X114540000Y-81240000D03*
X119240000Y-75040000D03*
X109440000Y-73640000D03*
X108140000Y-70940000D03*
X106640000Y-64740000D03*
X108640000Y-64740000D03*
X110640000Y-64740000D03*
X112640000Y-64740000D03*
X114140000Y-66240000D03*
X115140000Y-67740000D03*
X115140000Y-69740000D03*
X115140000Y-71740000D03*
X115140000Y-73740000D03*
X115140000Y-63740000D03*
X117140000Y-63740000D03*
X119140000Y-63740000D03*
X106640000Y-69740000D03*
X117140000Y-65740000D03*
X117640000Y-67740000D03*
X117640000Y-69740000D03*
X117640000Y-71740000D03*
X117640000Y-73740000D03*
X113140000Y-81240000D03*
X111640000Y-81240000D03*
X116140000Y-81240000D03*
X117640000Y-81240000D03*
X119140000Y-81240000D03*
X119140000Y-79740000D03*
X119140000Y-78240000D03*
X119140000Y-76740000D03*
X119140000Y-72740000D03*
X119140000Y-70740000D03*
X119140000Y-68740000D03*
X119140000Y-66240000D03*
X116140000Y-78240000D03*
X117640000Y-78240000D03*
X106640000Y-67240000D03*
X108640000Y-67240000D03*
X110640000Y-67240000D03*
X112640000Y-67240000D03*
%TD*%
D14*
%TO.N,GND*%
X109440000Y-73640000D02*
X109440000Y-66340000D01*
X109440000Y-66340000D02*
X109140000Y-66040000D01*
X108140000Y-70940000D02*
X108140000Y-66040000D01*
X108140000Y-66040000D02*
X104140000Y-66040000D01*
X109140000Y-66040000D02*
X108140000Y-66040000D01*
X114540000Y-81240000D02*
X112140000Y-81240000D01*
X112140000Y-81240000D02*
X110240000Y-79340000D01*
X110240000Y-74440000D02*
X109440000Y-73640000D01*
X110240000Y-79340000D02*
X110240000Y-74440000D01*
X119240000Y-75040000D02*
X119240000Y-78540000D01*
X116540000Y-81240000D02*
X114540000Y-81240000D01*
X119240000Y-78540000D02*
X116540000Y-81240000D01*
X115140000Y-63740000D02*
X119140000Y-63740000D01*
X119140000Y-74940000D02*
X119240000Y-75040000D01*
X119140000Y-63740000D02*
X119140000Y-74940000D01*
X117140000Y-63740000D02*
X117140000Y-65740000D01*
X117640000Y-67740000D02*
X117640000Y-73740000D01*
X118140000Y-71740000D02*
X119140000Y-72740000D01*
X117640000Y-71740000D02*
X118140000Y-71740000D01*
X115140000Y-73740000D02*
X115140000Y-67740000D01*
X115140000Y-67240000D02*
X115140000Y-67740000D01*
X112640000Y-64740000D02*
X115140000Y-67240000D01*
X106640000Y-64740000D02*
X112640000Y-64740000D01*
X113640000Y-66240000D02*
X112640000Y-67240000D01*
X114140000Y-66240000D02*
X113640000Y-66240000D01*
X108640000Y-67240000D02*
X109640000Y-67240000D01*
X109640000Y-67240000D02*
X112640000Y-67240000D01*
X106640000Y-67240000D02*
X109640000Y-67240000D01*
X106940000Y-69740000D02*
X108140000Y-70940000D01*
X106640000Y-69740000D02*
X106940000Y-69740000D01*
X116140000Y-78240000D02*
X119140000Y-78240000D01*
X119140000Y-81240000D02*
X119140000Y-78240000D01*
X116140000Y-81240000D02*
X119140000Y-81240000D01*
%TD*%
D15*
%TO.N,GND*%
X119990001Y-81890000D02*
X105628072Y-81890000D01*
X105628072Y-80430000D01*
X105615812Y-80305518D01*
X105579502Y-80185820D01*
X105520537Y-80075506D01*
X105466778Y-80010000D01*
X105520537Y-79944494D01*
X105579502Y-79834180D01*
X105615812Y-79714482D01*
X105628072Y-79590000D01*
X105628072Y-77890000D01*
X105615812Y-77765518D01*
X105579502Y-77645820D01*
X105520537Y-77535506D01*
X105466778Y-77470000D01*
X105520537Y-77404494D01*
X105579502Y-77294180D01*
X105615812Y-77174482D01*
X105628072Y-77050000D01*
X105628072Y-75350000D01*
X105615812Y-75225518D01*
X105579502Y-75105820D01*
X105520537Y-74995506D01*
X105466778Y-74930000D01*
X105520537Y-74864494D01*
X105579502Y-74754180D01*
X105615812Y-74634482D01*
X105628072Y-74510000D01*
X105628072Y-72810000D01*
X105615812Y-72685518D01*
X105579502Y-72565820D01*
X105520537Y-72455506D01*
X105441185Y-72358815D01*
X105344494Y-72279463D01*
X105234180Y-72220498D01*
X105114482Y-72184188D01*
X104990000Y-72171928D01*
X102260000Y-72171928D01*
X102260000Y-70068072D01*
X104990000Y-70068072D01*
X105114482Y-70055812D01*
X105234180Y-70019502D01*
X105344494Y-69960537D01*
X105441185Y-69881185D01*
X105520537Y-69784494D01*
X105579502Y-69674180D01*
X105615812Y-69554482D01*
X105628072Y-69430000D01*
X105628072Y-67730000D01*
X105615812Y-67605518D01*
X105579502Y-67485820D01*
X105520537Y-67375506D01*
X105441185Y-67278815D01*
X105344494Y-67199463D01*
X105234180Y-67140498D01*
X105114482Y-67104188D01*
X104990000Y-67091928D01*
X102361867Y-67091928D01*
X102385960Y-67005565D01*
X101600000Y-66219605D01*
X101585858Y-66233748D01*
X101406253Y-66054143D01*
X101420395Y-66040000D01*
X101779605Y-66040000D01*
X102565565Y-66825960D01*
X102805656Y-66758980D01*
X102922756Y-66509952D01*
X102989023Y-66242865D01*
X103001910Y-65967983D01*
X102960922Y-65695867D01*
X102867636Y-65436977D01*
X102805656Y-65321020D01*
X102565565Y-65254040D01*
X101779605Y-66040000D01*
X101420395Y-66040000D01*
X101406253Y-66025858D01*
X101585858Y-65846253D01*
X101600000Y-65860395D01*
X102385960Y-65074435D01*
X102361867Y-64988072D01*
X104990000Y-64988072D01*
X105114482Y-64975812D01*
X105234180Y-64939502D01*
X105344494Y-64880537D01*
X105441185Y-64801185D01*
X105520537Y-64704494D01*
X105579502Y-64594180D01*
X105615812Y-64474482D01*
X105628072Y-64350000D01*
X105628072Y-62890000D01*
X119990000Y-62890000D01*
X119990001Y-81890000D01*
%TA.AperFunction,Conductor*%
D16*
G36*
X119990001Y-81890000D02*
G01*
X105628072Y-81890000D01*
X105628072Y-80430000D01*
X105615812Y-80305518D01*
X105579502Y-80185820D01*
X105520537Y-80075506D01*
X105466778Y-80010000D01*
X105520537Y-79944494D01*
X105579502Y-79834180D01*
X105615812Y-79714482D01*
X105628072Y-79590000D01*
X105628072Y-77890000D01*
X105615812Y-77765518D01*
X105579502Y-77645820D01*
X105520537Y-77535506D01*
X105466778Y-77470000D01*
X105520537Y-77404494D01*
X105579502Y-77294180D01*
X105615812Y-77174482D01*
X105628072Y-77050000D01*
X105628072Y-75350000D01*
X105615812Y-75225518D01*
X105579502Y-75105820D01*
X105520537Y-74995506D01*
X105466778Y-74930000D01*
X105520537Y-74864494D01*
X105579502Y-74754180D01*
X105615812Y-74634482D01*
X105628072Y-74510000D01*
X105628072Y-72810000D01*
X105615812Y-72685518D01*
X105579502Y-72565820D01*
X105520537Y-72455506D01*
X105441185Y-72358815D01*
X105344494Y-72279463D01*
X105234180Y-72220498D01*
X105114482Y-72184188D01*
X104990000Y-72171928D01*
X102260000Y-72171928D01*
X102260000Y-70068072D01*
X104990000Y-70068072D01*
X105114482Y-70055812D01*
X105234180Y-70019502D01*
X105344494Y-69960537D01*
X105441185Y-69881185D01*
X105520537Y-69784494D01*
X105579502Y-69674180D01*
X105615812Y-69554482D01*
X105628072Y-69430000D01*
X105628072Y-67730000D01*
X105615812Y-67605518D01*
X105579502Y-67485820D01*
X105520537Y-67375506D01*
X105441185Y-67278815D01*
X105344494Y-67199463D01*
X105234180Y-67140498D01*
X105114482Y-67104188D01*
X104990000Y-67091928D01*
X102361867Y-67091928D01*
X102385960Y-67005565D01*
X101600000Y-66219605D01*
X101585858Y-66233748D01*
X101406253Y-66054143D01*
X101420395Y-66040000D01*
X101779605Y-66040000D01*
X102565565Y-66825960D01*
X102805656Y-66758980D01*
X102922756Y-66509952D01*
X102989023Y-66242865D01*
X103001910Y-65967983D01*
X102960922Y-65695867D01*
X102867636Y-65436977D01*
X102805656Y-65321020D01*
X102565565Y-65254040D01*
X101779605Y-66040000D01*
X101420395Y-66040000D01*
X101406253Y-66025858D01*
X101585858Y-65846253D01*
X101600000Y-65860395D01*
X102385960Y-65074435D01*
X102361867Y-64988072D01*
X104990000Y-64988072D01*
X105114482Y-64975812D01*
X105234180Y-64939502D01*
X105344494Y-64880537D01*
X105441185Y-64801185D01*
X105520537Y-64704494D01*
X105579502Y-64594180D01*
X105615812Y-64474482D01*
X105628072Y-64350000D01*
X105628072Y-62890000D01*
X119990000Y-62890000D01*
X119990001Y-81890000D01*
G37*
%TD.AperFunction*%
%TD*%
M02*
