G04 #@! TF.GenerationSoftware,KiCad,Pcbnew,(6.0.8)*
G04 #@! TF.CreationDate,2023-05-03T15:07:12+02:00*
G04 #@! TF.ProjectId,18_Mesure_Courant,31385f4d-6573-4757-9265-5f436f757261,rev?*
G04 #@! TF.SameCoordinates,Original*
G04 #@! TF.FileFunction,Legend,Top*
G04 #@! TF.FilePolarity,Positive*
%FSLAX46Y46*%
G04 Gerber Fmt 4.6, Leading zero omitted, Abs format (unit mm)*
G04 Created by KiCad (PCBNEW (6.0.8)) date 2023-05-03 15:07:12*
%MOMM*%
%LPD*%
G01*
G04 APERTURE LIST*
G04 Aperture macros list*
%AMRoundRect*
0 Rectangle with rounded corners*
0 $1 Rounding radius*
0 $2 $3 $4 $5 $6 $7 $8 $9 X,Y pos of 4 corners*
0 Add a 4 corners polygon primitive as box body*
4,1,4,$2,$3,$4,$5,$6,$7,$8,$9,$2,$3,0*
0 Add four circle primitives for the rounded corners*
1,1,$1+$1,$2,$3*
1,1,$1+$1,$4,$5*
1,1,$1+$1,$6,$7*
1,1,$1+$1,$8,$9*
0 Add four rect primitives between the rounded corners*
20,1,$1+$1,$2,$3,$4,$5,0*
20,1,$1+$1,$4,$5,$6,$7,0*
20,1,$1+$1,$6,$7,$8,$9,0*
20,1,$1+$1,$8,$9,$2,$3,0*%
%AMFreePoly0*
4,1,19,2.294749,0.844703,2.473926,0.804652,2.640323,0.727060,2.786177,0.615546,2.904682,0.475314,2.990310,0.312906,3.039066,0.135899,3.048675,-0.047448,3.018688,-0.228582,2.950505,-0.399051,2.847308,-0.550902,2.713909,-0.677050,2.556534,-0.771611,2.382525,-0.830171,2.200000,-0.850000,-0.850000,-0.850000,-0.850000,0.850000,2.200000,0.850000,2.294749,0.844703,2.294749,0.844703,
$1*%
G04 Aperture macros list end*
%ADD10C,0.150000*%
%ADD11C,0.120000*%
%ADD12RoundRect,0.200000X0.200000X0.275000X-0.200000X0.275000X-0.200000X-0.275000X0.200000X-0.275000X0*%
%ADD13RoundRect,0.225000X0.225000X0.250000X-0.225000X0.250000X-0.225000X-0.250000X0.225000X-0.250000X0*%
%ADD14RoundRect,0.250000X0.325000X1.100000X-0.325000X1.100000X-0.325000X-1.100000X0.325000X-1.100000X0*%
%ADD15RoundRect,0.150000X-0.825000X-0.150000X0.825000X-0.150000X0.825000X0.150000X-0.825000X0.150000X0*%
%ADD16FreePoly0,180.000000*%
%ADD17C,1.524000*%
%ADD18RoundRect,0.225000X-0.250000X0.225000X-0.250000X-0.225000X0.250000X-0.225000X0.250000X0.225000X0*%
G04 APERTURE END LIST*
D10*
X106489523Y-70572380D02*
X106013333Y-70572380D01*
X105965714Y-71048571D01*
X106013333Y-71000952D01*
X106108571Y-70953333D01*
X106346666Y-70953333D01*
X106441904Y-71000952D01*
X106489523Y-71048571D01*
X106537142Y-71143809D01*
X106537142Y-71381904D01*
X106489523Y-71477142D01*
X106441904Y-71524761D01*
X106346666Y-71572380D01*
X106108571Y-71572380D01*
X106013333Y-71524761D01*
X105965714Y-71477142D01*
X106822857Y-70572380D02*
X107156190Y-71572380D01*
X107489523Y-70572380D01*
X105815000Y-66492380D02*
X105815000Y-65492380D01*
X106291190Y-66492380D02*
X106291190Y-65825714D01*
X106291190Y-65920952D02*
X106338809Y-65873333D01*
X106434047Y-65825714D01*
X106576904Y-65825714D01*
X106672142Y-65873333D01*
X106719761Y-65968571D01*
X106719761Y-66492380D01*
X106719761Y-65968571D02*
X106767380Y-65873333D01*
X106862619Y-65825714D01*
X107005476Y-65825714D01*
X107100714Y-65873333D01*
X107148333Y-65968571D01*
X107148333Y-66492380D01*
X108005476Y-66444761D02*
X107910238Y-66492380D01*
X107719761Y-66492380D01*
X107624523Y-66444761D01*
X107576904Y-66349523D01*
X107576904Y-65968571D01*
X107624523Y-65873333D01*
X107719761Y-65825714D01*
X107910238Y-65825714D01*
X108005476Y-65873333D01*
X108053095Y-65968571D01*
X108053095Y-66063809D01*
X107576904Y-66159047D01*
X108434047Y-66444761D02*
X108529285Y-66492380D01*
X108719761Y-66492380D01*
X108815000Y-66444761D01*
X108862619Y-66349523D01*
X108862619Y-66301904D01*
X108815000Y-66206666D01*
X108719761Y-66159047D01*
X108576904Y-66159047D01*
X108481666Y-66111428D01*
X108434047Y-66016190D01*
X108434047Y-65968571D01*
X108481666Y-65873333D01*
X108576904Y-65825714D01*
X108719761Y-65825714D01*
X108815000Y-65873333D01*
X106116190Y-74192380D02*
X106116190Y-73192380D01*
X106592380Y-74192380D02*
X106592380Y-73192380D01*
X107163809Y-74192380D01*
X107163809Y-73192380D01*
X106240000Y-80692380D02*
X106430476Y-80692380D01*
X106525714Y-80740000D01*
X106620952Y-80835238D01*
X106668571Y-81025714D01*
X106668571Y-81359047D01*
X106620952Y-81549523D01*
X106525714Y-81644761D01*
X106430476Y-81692380D01*
X106240000Y-81692380D01*
X106144761Y-81644761D01*
X106049523Y-81549523D01*
X106001904Y-81359047D01*
X106001904Y-81025714D01*
X106049523Y-80835238D01*
X106144761Y-80740000D01*
X106240000Y-80692380D01*
X107097142Y-80692380D02*
X107097142Y-81501904D01*
X107144761Y-81597142D01*
X107192380Y-81644761D01*
X107287619Y-81692380D01*
X107478095Y-81692380D01*
X107573333Y-81644761D01*
X107620952Y-81597142D01*
X107668571Y-81501904D01*
X107668571Y-80692380D01*
X108001904Y-80692380D02*
X108573333Y-80692380D01*
X108287619Y-81692380D02*
X108287619Y-80692380D01*
X106553095Y-68080000D02*
X106457857Y-68032380D01*
X106315000Y-68032380D01*
X106172142Y-68080000D01*
X106076904Y-68175238D01*
X106029285Y-68270476D01*
X105981666Y-68460952D01*
X105981666Y-68603809D01*
X106029285Y-68794285D01*
X106076904Y-68889523D01*
X106172142Y-68984761D01*
X106315000Y-69032380D01*
X106410238Y-69032380D01*
X106553095Y-68984761D01*
X106600714Y-68937142D01*
X106600714Y-68603809D01*
X106410238Y-68603809D01*
X107029285Y-69032380D02*
X107029285Y-68032380D01*
X107600714Y-69032380D01*
X107600714Y-68032380D01*
X108076904Y-69032380D02*
X108076904Y-68032380D01*
X108315000Y-68032380D01*
X108457857Y-68080000D01*
X108553095Y-68175238D01*
X108600714Y-68270476D01*
X108648333Y-68460952D01*
X108648333Y-68603809D01*
X108600714Y-68794285D01*
X108553095Y-68889523D01*
X108457857Y-68984761D01*
X108315000Y-69032380D01*
X108076904Y-69032380D01*
D11*
X112606858Y-66384700D02*
X112132342Y-66384700D01*
X112606858Y-65339700D02*
X112132342Y-65339700D01*
X111880580Y-74150000D02*
X111599420Y-74150000D01*
X111880580Y-73130000D02*
X111599420Y-73130000D01*
X111651252Y-69580000D02*
X110228748Y-69580000D01*
X111651252Y-72300000D02*
X110228748Y-72300000D01*
X111900580Y-80770000D02*
X111619420Y-80770000D01*
X111900580Y-81790000D02*
X111619420Y-81790000D01*
X109840000Y-74880000D02*
X111790000Y-74880000D01*
X109840000Y-74880000D02*
X106390000Y-74880000D01*
X109840000Y-80000000D02*
X111790000Y-80000000D01*
X109840000Y-80000000D02*
X107890000Y-80000000D01*
X109421200Y-66483620D02*
X109421200Y-66764780D01*
X110441200Y-66483620D02*
X110441200Y-66764780D01*
%LPC*%
D12*
X113194600Y-65862200D03*
X111544600Y-65862200D03*
D13*
X112515000Y-73640000D03*
X110965000Y-73640000D03*
D14*
X112415000Y-70940000D03*
X109465000Y-70940000D03*
D13*
X112535000Y-81280000D03*
X110985000Y-81280000D03*
D15*
X107365000Y-75535000D03*
X107365000Y-76805000D03*
X107365000Y-78075000D03*
X107365000Y-79345000D03*
X112315000Y-79345000D03*
X112315000Y-78075000D03*
X112315000Y-76805000D03*
X112315000Y-75535000D03*
D16*
X104140000Y-66040000D03*
D17*
X101600000Y-66040000D03*
X101600000Y-68580000D03*
D16*
X104140000Y-68580000D03*
D17*
X101600000Y-71120000D03*
D16*
X104140000Y-71120000D03*
X104140000Y-73660000D03*
D17*
X101600000Y-73660000D03*
X101600000Y-76200000D03*
D16*
X104140000Y-76200000D03*
X104140000Y-78740000D03*
D17*
X101600000Y-78740000D03*
X101600000Y-81280000D03*
D16*
X104140000Y-81280000D03*
D18*
X109931200Y-65849200D03*
X109931200Y-67399200D03*
M02*
