%TF.GenerationSoftware,KiCad,Pcbnew,(5.1.9)-1*%
%TF.CreationDate,2021-06-01T15:36:46+02:00*%
%TF.ProjectId,18_Mesure_Courant,31385f4d-6573-4757-9265-5f436f757261,rev?*%
%TF.SameCoordinates,Original*%
%TF.FileFunction,Paste,Top*%
%TF.FilePolarity,Positive*%
%FSLAX46Y46*%
G04 Gerber Fmt 4.6, Leading zero omitted, Abs format (unit mm)*
G04 Created by KiCad (PCBNEW (5.1.9)-1) date 2021-06-01 15:36:46*
%MOMM*%
%LPD*%
G01*
G04 APERTURE LIST*
%TA.AperFunction,Profile*%
%ADD10C,0.050000*%
%TD*%
G04 APERTURE END LIST*
D10*
X101600000Y-69850000D02*
X100330000Y-69850000D01*
X101600000Y-72390000D02*
X101600000Y-69850000D01*
X100330000Y-72390000D02*
X101600000Y-72390000D01*
X100330000Y-82550000D02*
X120650000Y-82550000D01*
X100330000Y-62230000D02*
X101600000Y-62230000D01*
X100330000Y-64770000D02*
X100330000Y-62230000D01*
X100330000Y-69850000D02*
X100330000Y-67310000D01*
X120650000Y-62230000D02*
X120650000Y-82550000D01*
X101600000Y-62230000D02*
X120650000Y-62230000D01*
X100330000Y-80010000D02*
X100330000Y-82550000D01*
X100330000Y-64770000D02*
X100330000Y-67310000D01*
X100330000Y-80010000D02*
X100330000Y-72390000D01*
%TO.C,R1*%
G36*
G01*
X115890000Y-76977500D02*
X115890000Y-76502500D01*
G75*
G02*
X116127500Y-76265000I237500J0D01*
G01*
X116702500Y-76265000D01*
G75*
G02*
X116940000Y-76502500I0J-237500D01*
G01*
X116940000Y-76977500D01*
G75*
G02*
X116702500Y-77215000I-237500J0D01*
G01*
X116127500Y-77215000D01*
G75*
G02*
X115890000Y-76977500I0J237500D01*
G01*
G37*
G36*
G01*
X114140000Y-76977500D02*
X114140000Y-76502500D01*
G75*
G02*
X114377500Y-76265000I237500J0D01*
G01*
X114952500Y-76265000D01*
G75*
G02*
X115190000Y-76502500I0J-237500D01*
G01*
X115190000Y-76977500D01*
G75*
G02*
X114952500Y-77215000I-237500J0D01*
G01*
X114377500Y-77215000D01*
G75*
G02*
X114140000Y-76977500I0J237500D01*
G01*
G37*
%TD*%
%TO.C,C1*%
G36*
G01*
X111415000Y-73390000D02*
X111415000Y-73890000D01*
G75*
G02*
X111190000Y-74115000I-225000J0D01*
G01*
X110740000Y-74115000D01*
G75*
G02*
X110515000Y-73890000I0J225000D01*
G01*
X110515000Y-73390000D01*
G75*
G02*
X110740000Y-73165000I225000J0D01*
G01*
X111190000Y-73165000D01*
G75*
G02*
X111415000Y-73390000I0J-225000D01*
G01*
G37*
G36*
G01*
X112965000Y-73390000D02*
X112965000Y-73890000D01*
G75*
G02*
X112740000Y-74115000I-225000J0D01*
G01*
X112290000Y-74115000D01*
G75*
G02*
X112065000Y-73890000I0J225000D01*
G01*
X112065000Y-73390000D01*
G75*
G02*
X112290000Y-73165000I225000J0D01*
G01*
X112740000Y-73165000D01*
G75*
G02*
X112965000Y-73390000I0J-225000D01*
G01*
G37*
%TD*%
%TO.C,C2*%
G36*
G01*
X110040000Y-69839999D02*
X110040000Y-72040001D01*
G75*
G02*
X109790001Y-72290000I-249999J0D01*
G01*
X109139999Y-72290000D01*
G75*
G02*
X108890000Y-72040001I0J249999D01*
G01*
X108890000Y-69839999D01*
G75*
G02*
X109139999Y-69590000I249999J0D01*
G01*
X109790001Y-69590000D01*
G75*
G02*
X110040000Y-69839999I0J-249999D01*
G01*
G37*
G36*
G01*
X112990000Y-69839999D02*
X112990000Y-72040001D01*
G75*
G02*
X112740001Y-72290000I-249999J0D01*
G01*
X112089999Y-72290000D01*
G75*
G02*
X111840000Y-72040001I0J249999D01*
G01*
X111840000Y-69839999D01*
G75*
G02*
X112089999Y-69590000I249999J0D01*
G01*
X112740001Y-69590000D01*
G75*
G02*
X112990000Y-69839999I0J-249999D01*
G01*
G37*
%TD*%
%TO.C,C3*%
G36*
G01*
X117465000Y-75290000D02*
X117465000Y-74790000D01*
G75*
G02*
X117690000Y-74565000I225000J0D01*
G01*
X118140000Y-74565000D01*
G75*
G02*
X118365000Y-74790000I0J-225000D01*
G01*
X118365000Y-75290000D01*
G75*
G02*
X118140000Y-75515000I-225000J0D01*
G01*
X117690000Y-75515000D01*
G75*
G02*
X117465000Y-75290000I0J225000D01*
G01*
G37*
G36*
G01*
X115915000Y-75290000D02*
X115915000Y-74790000D01*
G75*
G02*
X116140000Y-74565000I225000J0D01*
G01*
X116590000Y-74565000D01*
G75*
G02*
X116815000Y-74790000I0J-225000D01*
G01*
X116815000Y-75290000D01*
G75*
G02*
X116590000Y-75515000I-225000J0D01*
G01*
X116140000Y-75515000D01*
G75*
G02*
X115915000Y-75290000I0J225000D01*
G01*
G37*
%TD*%
%TO.C,C4*%
G36*
G01*
X114290000Y-79465000D02*
X114790000Y-79465000D01*
G75*
G02*
X115015000Y-79690000I0J-225000D01*
G01*
X115015000Y-80140000D01*
G75*
G02*
X114790000Y-80365000I-225000J0D01*
G01*
X114290000Y-80365000D01*
G75*
G02*
X114065000Y-80140000I0J225000D01*
G01*
X114065000Y-79690000D01*
G75*
G02*
X114290000Y-79465000I225000J0D01*
G01*
G37*
G36*
G01*
X114290000Y-77915000D02*
X114790000Y-77915000D01*
G75*
G02*
X115015000Y-78140000I0J-225000D01*
G01*
X115015000Y-78590000D01*
G75*
G02*
X114790000Y-78815000I-225000J0D01*
G01*
X114290000Y-78815000D01*
G75*
G02*
X114065000Y-78590000I0J225000D01*
G01*
X114065000Y-78140000D01*
G75*
G02*
X114290000Y-77915000I225000J0D01*
G01*
G37*
%TD*%
%TO.C,U1*%
G36*
G01*
X111340000Y-75685000D02*
X111340000Y-75385000D01*
G75*
G02*
X111490000Y-75235000I150000J0D01*
G01*
X113140000Y-75235000D01*
G75*
G02*
X113290000Y-75385000I0J-150000D01*
G01*
X113290000Y-75685000D01*
G75*
G02*
X113140000Y-75835000I-150000J0D01*
G01*
X111490000Y-75835000D01*
G75*
G02*
X111340000Y-75685000I0J150000D01*
G01*
G37*
G36*
G01*
X111340000Y-76955000D02*
X111340000Y-76655000D01*
G75*
G02*
X111490000Y-76505000I150000J0D01*
G01*
X113140000Y-76505000D01*
G75*
G02*
X113290000Y-76655000I0J-150000D01*
G01*
X113290000Y-76955000D01*
G75*
G02*
X113140000Y-77105000I-150000J0D01*
G01*
X111490000Y-77105000D01*
G75*
G02*
X111340000Y-76955000I0J150000D01*
G01*
G37*
G36*
G01*
X111340000Y-78225000D02*
X111340000Y-77925000D01*
G75*
G02*
X111490000Y-77775000I150000J0D01*
G01*
X113140000Y-77775000D01*
G75*
G02*
X113290000Y-77925000I0J-150000D01*
G01*
X113290000Y-78225000D01*
G75*
G02*
X113140000Y-78375000I-150000J0D01*
G01*
X111490000Y-78375000D01*
G75*
G02*
X111340000Y-78225000I0J150000D01*
G01*
G37*
G36*
G01*
X111340000Y-79495000D02*
X111340000Y-79195000D01*
G75*
G02*
X111490000Y-79045000I150000J0D01*
G01*
X113140000Y-79045000D01*
G75*
G02*
X113290000Y-79195000I0J-150000D01*
G01*
X113290000Y-79495000D01*
G75*
G02*
X113140000Y-79645000I-150000J0D01*
G01*
X111490000Y-79645000D01*
G75*
G02*
X111340000Y-79495000I0J150000D01*
G01*
G37*
G36*
G01*
X106390000Y-79495000D02*
X106390000Y-79195000D01*
G75*
G02*
X106540000Y-79045000I150000J0D01*
G01*
X108190000Y-79045000D01*
G75*
G02*
X108340000Y-79195000I0J-150000D01*
G01*
X108340000Y-79495000D01*
G75*
G02*
X108190000Y-79645000I-150000J0D01*
G01*
X106540000Y-79645000D01*
G75*
G02*
X106390000Y-79495000I0J150000D01*
G01*
G37*
G36*
G01*
X106390000Y-78225000D02*
X106390000Y-77925000D01*
G75*
G02*
X106540000Y-77775000I150000J0D01*
G01*
X108190000Y-77775000D01*
G75*
G02*
X108340000Y-77925000I0J-150000D01*
G01*
X108340000Y-78225000D01*
G75*
G02*
X108190000Y-78375000I-150000J0D01*
G01*
X106540000Y-78375000D01*
G75*
G02*
X106390000Y-78225000I0J150000D01*
G01*
G37*
G36*
G01*
X106390000Y-76955000D02*
X106390000Y-76655000D01*
G75*
G02*
X106540000Y-76505000I150000J0D01*
G01*
X108190000Y-76505000D01*
G75*
G02*
X108340000Y-76655000I0J-150000D01*
G01*
X108340000Y-76955000D01*
G75*
G02*
X108190000Y-77105000I-150000J0D01*
G01*
X106540000Y-77105000D01*
G75*
G02*
X106390000Y-76955000I0J150000D01*
G01*
G37*
G36*
G01*
X106390000Y-75685000D02*
X106390000Y-75385000D01*
G75*
G02*
X106540000Y-75235000I150000J0D01*
G01*
X108190000Y-75235000D01*
G75*
G02*
X108340000Y-75385000I0J-150000D01*
G01*
X108340000Y-75685000D01*
G75*
G02*
X108190000Y-75835000I-150000J0D01*
G01*
X106540000Y-75835000D01*
G75*
G02*
X106390000Y-75685000I0J150000D01*
G01*
G37*
%TD*%
M02*
