%TF.GenerationSoftware,KiCad,Pcbnew,(5.1.9)-1*%
%TF.CreationDate,2021-06-01T15:36:46+02:00*%
%TF.ProjectId,18_Mesure_Courant,31385f4d-6573-4757-9265-5f436f757261,rev?*%
%TF.SameCoordinates,Original*%
%TF.FileFunction,Other,Fab,Top*%
%FSLAX46Y46*%
G04 Gerber Fmt 4.6, Leading zero omitted, Abs format (unit mm)*
G04 Created by KiCad (PCBNEW (5.1.9)-1) date 2021-06-01 15:36:46*
%MOMM*%
%LPD*%
G01*
G04 APERTURE LIST*
%TA.AperFunction,Profile*%
%ADD10C,0.050000*%
%TD*%
%ADD11C,0.120000*%
%ADD12C,0.100000*%
%ADD13C,0.150000*%
%ADD14C,0.060000*%
G04 APERTURE END LIST*
D10*
X101600000Y-69850000D02*
X100330000Y-69850000D01*
X101600000Y-72390000D02*
X101600000Y-69850000D01*
X100330000Y-72390000D02*
X101600000Y-72390000D01*
X100330000Y-82550000D02*
X120650000Y-82550000D01*
X100330000Y-62230000D02*
X101600000Y-62230000D01*
X100330000Y-64770000D02*
X100330000Y-62230000D01*
X100330000Y-69850000D02*
X100330000Y-67310000D01*
X120650000Y-62230000D02*
X120650000Y-82550000D01*
X101600000Y-62230000D02*
X120650000Y-62230000D01*
X100330000Y-80010000D02*
X100330000Y-82550000D01*
X100330000Y-64770000D02*
X100330000Y-67310000D01*
X100330000Y-80010000D02*
X100330000Y-72390000D01*
D11*
%TO.C,J2*%
X101600000Y-67945000D02*
X101600000Y-64135000D01*
D12*
X104775000Y-67310000D02*
X101600000Y-67310000D01*
X101600000Y-64770000D02*
X102870000Y-64770000D01*
X102870000Y-64770000D02*
X105410000Y-64770000D01*
X105410000Y-64770000D02*
X105410000Y-66675000D01*
X105410000Y-66675000D02*
X104775000Y-67310000D01*
D11*
%TO.C,J3*%
X101600000Y-70485000D02*
X101600000Y-66675000D01*
D12*
X104775000Y-69850000D02*
X101600000Y-69850000D01*
X101600000Y-67310000D02*
X102870000Y-67310000D01*
X102870000Y-67310000D02*
X105410000Y-67310000D01*
X105410000Y-67310000D02*
X105410000Y-69215000D01*
X105410000Y-69215000D02*
X104775000Y-69850000D01*
D11*
%TO.C,J1*%
X101600000Y-65405000D02*
X101600000Y-61595000D01*
D12*
X104775000Y-64770000D02*
X101600000Y-64770000D01*
X101600000Y-62230000D02*
X102870000Y-62230000D01*
X102870000Y-62230000D02*
X105410000Y-62230000D01*
X105410000Y-62230000D02*
X105410000Y-64135000D01*
X105410000Y-64135000D02*
X104775000Y-64770000D01*
%TO.C,R1*%
X114740000Y-77140000D02*
X114740000Y-76340000D01*
X114740000Y-76340000D02*
X116340000Y-76340000D01*
X116340000Y-76340000D02*
X116340000Y-77140000D01*
X116340000Y-77140000D02*
X114740000Y-77140000D01*
D11*
%TO.C,J6*%
X101600000Y-80645000D02*
X101600000Y-76835000D01*
D12*
X104775000Y-80010000D02*
X101600000Y-80010000D01*
X101600000Y-77470000D02*
X102870000Y-77470000D01*
X102870000Y-77470000D02*
X105410000Y-77470000D01*
X105410000Y-77470000D02*
X105410000Y-79375000D01*
X105410000Y-79375000D02*
X104775000Y-80010000D01*
%TO.C,C1*%
X112540000Y-73240000D02*
X112540000Y-74040000D01*
X112540000Y-74040000D02*
X110940000Y-74040000D01*
X110940000Y-74040000D02*
X110940000Y-73240000D01*
X110940000Y-73240000D02*
X112540000Y-73240000D01*
D11*
%TO.C,J7*%
X101600000Y-83185000D02*
X101600000Y-79375000D01*
D12*
X104775000Y-82550000D02*
X101600000Y-82550000D01*
X101600000Y-80010000D02*
X102870000Y-80010000D01*
X102870000Y-80010000D02*
X105410000Y-80010000D01*
X105410000Y-80010000D02*
X105410000Y-81915000D01*
X105410000Y-81915000D02*
X104775000Y-82550000D01*
D11*
%TO.C,J4*%
X101600000Y-75565000D02*
X101600000Y-71755000D01*
D12*
X104775000Y-74930000D02*
X101600000Y-74930000D01*
X101600000Y-72390000D02*
X102870000Y-72390000D01*
X102870000Y-72390000D02*
X105410000Y-72390000D01*
X105410000Y-72390000D02*
X105410000Y-74295000D01*
X105410000Y-74295000D02*
X104775000Y-74930000D01*
D11*
%TO.C,J5*%
X101600000Y-78105000D02*
X101600000Y-74295000D01*
D12*
X104775000Y-77470000D02*
X101600000Y-77470000D01*
X101600000Y-74930000D02*
X102870000Y-74930000D01*
X102870000Y-74930000D02*
X105410000Y-74930000D01*
X105410000Y-74930000D02*
X105410000Y-76835000D01*
X105410000Y-76835000D02*
X104775000Y-77470000D01*
%TO.C,C2*%
X112540000Y-69690000D02*
X112540000Y-72190000D01*
X112540000Y-72190000D02*
X109340000Y-72190000D01*
X109340000Y-72190000D02*
X109340000Y-69690000D01*
X109340000Y-69690000D02*
X112540000Y-69690000D01*
%TO.C,C3*%
X116340000Y-75440000D02*
X116340000Y-74640000D01*
X116340000Y-74640000D02*
X117940000Y-74640000D01*
X117940000Y-74640000D02*
X117940000Y-75440000D01*
X117940000Y-75440000D02*
X116340000Y-75440000D01*
%TO.C,C4*%
X114140000Y-78340000D02*
X114940000Y-78340000D01*
X114940000Y-78340000D02*
X114940000Y-79940000D01*
X114940000Y-79940000D02*
X114140000Y-79940000D01*
X114140000Y-79940000D02*
X114140000Y-78340000D01*
%TO.C,U1*%
X108865000Y-74990000D02*
X111790000Y-74990000D01*
X111790000Y-74990000D02*
X111790000Y-79890000D01*
X111790000Y-79890000D02*
X107890000Y-79890000D01*
X107890000Y-79890000D02*
X107890000Y-75965000D01*
X107890000Y-75965000D02*
X108865000Y-74990000D01*
%TD*%
%TO.C,J2*%
D13*
X91511904Y-66397142D02*
X91464285Y-66444761D01*
X91321428Y-66492380D01*
X91226190Y-66492380D01*
X91083333Y-66444761D01*
X90988095Y-66349523D01*
X90940476Y-66254285D01*
X90892857Y-66063809D01*
X90892857Y-65920952D01*
X90940476Y-65730476D01*
X90988095Y-65635238D01*
X91083333Y-65540000D01*
X91226190Y-65492380D01*
X91321428Y-65492380D01*
X91464285Y-65540000D01*
X91511904Y-65587619D01*
X92083333Y-66492380D02*
X91988095Y-66444761D01*
X91940476Y-66397142D01*
X91892857Y-66301904D01*
X91892857Y-66016190D01*
X91940476Y-65920952D01*
X91988095Y-65873333D01*
X92083333Y-65825714D01*
X92226190Y-65825714D01*
X92321428Y-65873333D01*
X92369047Y-65920952D01*
X92416666Y-66016190D01*
X92416666Y-66301904D01*
X92369047Y-66397142D01*
X92321428Y-66444761D01*
X92226190Y-66492380D01*
X92083333Y-66492380D01*
X92845238Y-65825714D02*
X92845238Y-66492380D01*
X92845238Y-65920952D02*
X92892857Y-65873333D01*
X92988095Y-65825714D01*
X93130952Y-65825714D01*
X93226190Y-65873333D01*
X93273809Y-65968571D01*
X93273809Y-66492380D01*
X93750000Y-65825714D02*
X93750000Y-66492380D01*
X93750000Y-65920952D02*
X93797619Y-65873333D01*
X93892857Y-65825714D01*
X94035714Y-65825714D01*
X94130952Y-65873333D01*
X94178571Y-65968571D01*
X94178571Y-66492380D01*
X94416666Y-66587619D02*
X95178571Y-66587619D01*
X95607142Y-65492380D02*
X95702380Y-65492380D01*
X95797619Y-65540000D01*
X95845238Y-65587619D01*
X95892857Y-65682857D01*
X95940476Y-65873333D01*
X95940476Y-66111428D01*
X95892857Y-66301904D01*
X95845238Y-66397142D01*
X95797619Y-66444761D01*
X95702380Y-66492380D01*
X95607142Y-66492380D01*
X95511904Y-66444761D01*
X95464285Y-66397142D01*
X95416666Y-66301904D01*
X95369047Y-66111428D01*
X95369047Y-65873333D01*
X95416666Y-65682857D01*
X95464285Y-65587619D01*
X95511904Y-65540000D01*
X95607142Y-65492380D01*
X96892857Y-66492380D02*
X96321428Y-66492380D01*
X96607142Y-66492380D02*
X96607142Y-65492380D01*
X96511904Y-65635238D01*
X96416666Y-65730476D01*
X96321428Y-65778095D01*
X97226190Y-66492380D02*
X97750000Y-65825714D01*
X97226190Y-65825714D02*
X97750000Y-66492380D01*
X98321428Y-65492380D02*
X98416666Y-65492380D01*
X98511904Y-65540000D01*
X98559523Y-65587619D01*
X98607142Y-65682857D01*
X98654761Y-65873333D01*
X98654761Y-66111428D01*
X98607142Y-66301904D01*
X98559523Y-66397142D01*
X98511904Y-66444761D01*
X98416666Y-66492380D01*
X98321428Y-66492380D01*
X98226190Y-66444761D01*
X98178571Y-66397142D01*
X98130952Y-66301904D01*
X98083333Y-66111428D01*
X98083333Y-65873333D01*
X98130952Y-65682857D01*
X98178571Y-65587619D01*
X98226190Y-65540000D01*
X98321428Y-65492380D01*
X99607142Y-66492380D02*
X99035714Y-66492380D01*
X99321428Y-66492380D02*
X99321428Y-65492380D01*
X99226190Y-65635238D01*
X99130952Y-65730476D01*
X99035714Y-65778095D01*
X103806666Y-65492380D02*
X103806666Y-66206666D01*
X103759047Y-66349523D01*
X103663809Y-66444761D01*
X103520952Y-66492380D01*
X103425714Y-66492380D01*
X104235238Y-65587619D02*
X104282857Y-65540000D01*
X104378095Y-65492380D01*
X104616190Y-65492380D01*
X104711428Y-65540000D01*
X104759047Y-65587619D01*
X104806666Y-65682857D01*
X104806666Y-65778095D01*
X104759047Y-65920952D01*
X104187619Y-66492380D01*
X104806666Y-66492380D01*
%TO.C,J3*%
X91511904Y-68937142D02*
X91464285Y-68984761D01*
X91321428Y-69032380D01*
X91226190Y-69032380D01*
X91083333Y-68984761D01*
X90988095Y-68889523D01*
X90940476Y-68794285D01*
X90892857Y-68603809D01*
X90892857Y-68460952D01*
X90940476Y-68270476D01*
X90988095Y-68175238D01*
X91083333Y-68080000D01*
X91226190Y-68032380D01*
X91321428Y-68032380D01*
X91464285Y-68080000D01*
X91511904Y-68127619D01*
X92083333Y-69032380D02*
X91988095Y-68984761D01*
X91940476Y-68937142D01*
X91892857Y-68841904D01*
X91892857Y-68556190D01*
X91940476Y-68460952D01*
X91988095Y-68413333D01*
X92083333Y-68365714D01*
X92226190Y-68365714D01*
X92321428Y-68413333D01*
X92369047Y-68460952D01*
X92416666Y-68556190D01*
X92416666Y-68841904D01*
X92369047Y-68937142D01*
X92321428Y-68984761D01*
X92226190Y-69032380D01*
X92083333Y-69032380D01*
X92845238Y-68365714D02*
X92845238Y-69032380D01*
X92845238Y-68460952D02*
X92892857Y-68413333D01*
X92988095Y-68365714D01*
X93130952Y-68365714D01*
X93226190Y-68413333D01*
X93273809Y-68508571D01*
X93273809Y-69032380D01*
X93750000Y-68365714D02*
X93750000Y-69032380D01*
X93750000Y-68460952D02*
X93797619Y-68413333D01*
X93892857Y-68365714D01*
X94035714Y-68365714D01*
X94130952Y-68413333D01*
X94178571Y-68508571D01*
X94178571Y-69032380D01*
X94416666Y-69127619D02*
X95178571Y-69127619D01*
X95607142Y-68032380D02*
X95702380Y-68032380D01*
X95797619Y-68080000D01*
X95845238Y-68127619D01*
X95892857Y-68222857D01*
X95940476Y-68413333D01*
X95940476Y-68651428D01*
X95892857Y-68841904D01*
X95845238Y-68937142D01*
X95797619Y-68984761D01*
X95702380Y-69032380D01*
X95607142Y-69032380D01*
X95511904Y-68984761D01*
X95464285Y-68937142D01*
X95416666Y-68841904D01*
X95369047Y-68651428D01*
X95369047Y-68413333D01*
X95416666Y-68222857D01*
X95464285Y-68127619D01*
X95511904Y-68080000D01*
X95607142Y-68032380D01*
X96892857Y-69032380D02*
X96321428Y-69032380D01*
X96607142Y-69032380D02*
X96607142Y-68032380D01*
X96511904Y-68175238D01*
X96416666Y-68270476D01*
X96321428Y-68318095D01*
X97226190Y-69032380D02*
X97750000Y-68365714D01*
X97226190Y-68365714D02*
X97750000Y-69032380D01*
X98321428Y-68032380D02*
X98416666Y-68032380D01*
X98511904Y-68080000D01*
X98559523Y-68127619D01*
X98607142Y-68222857D01*
X98654761Y-68413333D01*
X98654761Y-68651428D01*
X98607142Y-68841904D01*
X98559523Y-68937142D01*
X98511904Y-68984761D01*
X98416666Y-69032380D01*
X98321428Y-69032380D01*
X98226190Y-68984761D01*
X98178571Y-68937142D01*
X98130952Y-68841904D01*
X98083333Y-68651428D01*
X98083333Y-68413333D01*
X98130952Y-68222857D01*
X98178571Y-68127619D01*
X98226190Y-68080000D01*
X98321428Y-68032380D01*
X99607142Y-69032380D02*
X99035714Y-69032380D01*
X99321428Y-69032380D02*
X99321428Y-68032380D01*
X99226190Y-68175238D01*
X99130952Y-68270476D01*
X99035714Y-68318095D01*
X103806666Y-68032380D02*
X103806666Y-68746666D01*
X103759047Y-68889523D01*
X103663809Y-68984761D01*
X103520952Y-69032380D01*
X103425714Y-69032380D01*
X104187619Y-68032380D02*
X104806666Y-68032380D01*
X104473333Y-68413333D01*
X104616190Y-68413333D01*
X104711428Y-68460952D01*
X104759047Y-68508571D01*
X104806666Y-68603809D01*
X104806666Y-68841904D01*
X104759047Y-68937142D01*
X104711428Y-68984761D01*
X104616190Y-69032380D01*
X104330476Y-69032380D01*
X104235238Y-68984761D01*
X104187619Y-68937142D01*
%TO.C,J1*%
X91511904Y-63857142D02*
X91464285Y-63904761D01*
X91321428Y-63952380D01*
X91226190Y-63952380D01*
X91083333Y-63904761D01*
X90988095Y-63809523D01*
X90940476Y-63714285D01*
X90892857Y-63523809D01*
X90892857Y-63380952D01*
X90940476Y-63190476D01*
X90988095Y-63095238D01*
X91083333Y-63000000D01*
X91226190Y-62952380D01*
X91321428Y-62952380D01*
X91464285Y-63000000D01*
X91511904Y-63047619D01*
X92083333Y-63952380D02*
X91988095Y-63904761D01*
X91940476Y-63857142D01*
X91892857Y-63761904D01*
X91892857Y-63476190D01*
X91940476Y-63380952D01*
X91988095Y-63333333D01*
X92083333Y-63285714D01*
X92226190Y-63285714D01*
X92321428Y-63333333D01*
X92369047Y-63380952D01*
X92416666Y-63476190D01*
X92416666Y-63761904D01*
X92369047Y-63857142D01*
X92321428Y-63904761D01*
X92226190Y-63952380D01*
X92083333Y-63952380D01*
X92845238Y-63285714D02*
X92845238Y-63952380D01*
X92845238Y-63380952D02*
X92892857Y-63333333D01*
X92988095Y-63285714D01*
X93130952Y-63285714D01*
X93226190Y-63333333D01*
X93273809Y-63428571D01*
X93273809Y-63952380D01*
X93750000Y-63285714D02*
X93750000Y-63952380D01*
X93750000Y-63380952D02*
X93797619Y-63333333D01*
X93892857Y-63285714D01*
X94035714Y-63285714D01*
X94130952Y-63333333D01*
X94178571Y-63428571D01*
X94178571Y-63952380D01*
X94416666Y-64047619D02*
X95178571Y-64047619D01*
X95607142Y-62952380D02*
X95702380Y-62952380D01*
X95797619Y-63000000D01*
X95845238Y-63047619D01*
X95892857Y-63142857D01*
X95940476Y-63333333D01*
X95940476Y-63571428D01*
X95892857Y-63761904D01*
X95845238Y-63857142D01*
X95797619Y-63904761D01*
X95702380Y-63952380D01*
X95607142Y-63952380D01*
X95511904Y-63904761D01*
X95464285Y-63857142D01*
X95416666Y-63761904D01*
X95369047Y-63571428D01*
X95369047Y-63333333D01*
X95416666Y-63142857D01*
X95464285Y-63047619D01*
X95511904Y-63000000D01*
X95607142Y-62952380D01*
X96892857Y-63952380D02*
X96321428Y-63952380D01*
X96607142Y-63952380D02*
X96607142Y-62952380D01*
X96511904Y-63095238D01*
X96416666Y-63190476D01*
X96321428Y-63238095D01*
X97226190Y-63952380D02*
X97750000Y-63285714D01*
X97226190Y-63285714D02*
X97750000Y-63952380D01*
X98321428Y-62952380D02*
X98416666Y-62952380D01*
X98511904Y-63000000D01*
X98559523Y-63047619D01*
X98607142Y-63142857D01*
X98654761Y-63333333D01*
X98654761Y-63571428D01*
X98607142Y-63761904D01*
X98559523Y-63857142D01*
X98511904Y-63904761D01*
X98416666Y-63952380D01*
X98321428Y-63952380D01*
X98226190Y-63904761D01*
X98178571Y-63857142D01*
X98130952Y-63761904D01*
X98083333Y-63571428D01*
X98083333Y-63333333D01*
X98130952Y-63142857D01*
X98178571Y-63047619D01*
X98226190Y-63000000D01*
X98321428Y-62952380D01*
X99607142Y-63952380D02*
X99035714Y-63952380D01*
X99321428Y-63952380D02*
X99321428Y-62952380D01*
X99226190Y-63095238D01*
X99130952Y-63190476D01*
X99035714Y-63238095D01*
X103806666Y-62952380D02*
X103806666Y-63666666D01*
X103759047Y-63809523D01*
X103663809Y-63904761D01*
X103520952Y-63952380D01*
X103425714Y-63952380D01*
X104806666Y-63952380D02*
X104235238Y-63952380D01*
X104520952Y-63952380D02*
X104520952Y-62952380D01*
X104425714Y-63095238D01*
X104330476Y-63190476D01*
X104235238Y-63238095D01*
%TO.C,R1*%
X115420952Y-78622380D02*
X114849523Y-78622380D01*
X115135238Y-78622380D02*
X115135238Y-77622380D01*
X115040000Y-77765238D01*
X114944761Y-77860476D01*
X114849523Y-77908095D01*
X115849523Y-78622380D02*
X115849523Y-77622380D01*
X115944761Y-78241428D02*
X116230476Y-78622380D01*
X116230476Y-77955714D02*
X115849523Y-78336666D01*
D14*
X115473333Y-76920952D02*
X115340000Y-76730476D01*
X115244761Y-76920952D02*
X115244761Y-76520952D01*
X115397142Y-76520952D01*
X115435238Y-76540000D01*
X115454285Y-76559047D01*
X115473333Y-76597142D01*
X115473333Y-76654285D01*
X115454285Y-76692380D01*
X115435238Y-76711428D01*
X115397142Y-76730476D01*
X115244761Y-76730476D01*
X115854285Y-76920952D02*
X115625714Y-76920952D01*
X115740000Y-76920952D02*
X115740000Y-76520952D01*
X115701904Y-76578095D01*
X115663809Y-76616190D01*
X115625714Y-76635238D01*
%TO.C,J6*%
D13*
X91511904Y-79097142D02*
X91464285Y-79144761D01*
X91321428Y-79192380D01*
X91226190Y-79192380D01*
X91083333Y-79144761D01*
X90988095Y-79049523D01*
X90940476Y-78954285D01*
X90892857Y-78763809D01*
X90892857Y-78620952D01*
X90940476Y-78430476D01*
X90988095Y-78335238D01*
X91083333Y-78240000D01*
X91226190Y-78192380D01*
X91321428Y-78192380D01*
X91464285Y-78240000D01*
X91511904Y-78287619D01*
X92083333Y-79192380D02*
X91988095Y-79144761D01*
X91940476Y-79097142D01*
X91892857Y-79001904D01*
X91892857Y-78716190D01*
X91940476Y-78620952D01*
X91988095Y-78573333D01*
X92083333Y-78525714D01*
X92226190Y-78525714D01*
X92321428Y-78573333D01*
X92369047Y-78620952D01*
X92416666Y-78716190D01*
X92416666Y-79001904D01*
X92369047Y-79097142D01*
X92321428Y-79144761D01*
X92226190Y-79192380D01*
X92083333Y-79192380D01*
X92845238Y-78525714D02*
X92845238Y-79192380D01*
X92845238Y-78620952D02*
X92892857Y-78573333D01*
X92988095Y-78525714D01*
X93130952Y-78525714D01*
X93226190Y-78573333D01*
X93273809Y-78668571D01*
X93273809Y-79192380D01*
X93750000Y-78525714D02*
X93750000Y-79192380D01*
X93750000Y-78620952D02*
X93797619Y-78573333D01*
X93892857Y-78525714D01*
X94035714Y-78525714D01*
X94130952Y-78573333D01*
X94178571Y-78668571D01*
X94178571Y-79192380D01*
X94416666Y-79287619D02*
X95178571Y-79287619D01*
X95607142Y-78192380D02*
X95702380Y-78192380D01*
X95797619Y-78240000D01*
X95845238Y-78287619D01*
X95892857Y-78382857D01*
X95940476Y-78573333D01*
X95940476Y-78811428D01*
X95892857Y-79001904D01*
X95845238Y-79097142D01*
X95797619Y-79144761D01*
X95702380Y-79192380D01*
X95607142Y-79192380D01*
X95511904Y-79144761D01*
X95464285Y-79097142D01*
X95416666Y-79001904D01*
X95369047Y-78811428D01*
X95369047Y-78573333D01*
X95416666Y-78382857D01*
X95464285Y-78287619D01*
X95511904Y-78240000D01*
X95607142Y-78192380D01*
X96892857Y-79192380D02*
X96321428Y-79192380D01*
X96607142Y-79192380D02*
X96607142Y-78192380D01*
X96511904Y-78335238D01*
X96416666Y-78430476D01*
X96321428Y-78478095D01*
X97226190Y-79192380D02*
X97750000Y-78525714D01*
X97226190Y-78525714D02*
X97750000Y-79192380D01*
X98321428Y-78192380D02*
X98416666Y-78192380D01*
X98511904Y-78240000D01*
X98559523Y-78287619D01*
X98607142Y-78382857D01*
X98654761Y-78573333D01*
X98654761Y-78811428D01*
X98607142Y-79001904D01*
X98559523Y-79097142D01*
X98511904Y-79144761D01*
X98416666Y-79192380D01*
X98321428Y-79192380D01*
X98226190Y-79144761D01*
X98178571Y-79097142D01*
X98130952Y-79001904D01*
X98083333Y-78811428D01*
X98083333Y-78573333D01*
X98130952Y-78382857D01*
X98178571Y-78287619D01*
X98226190Y-78240000D01*
X98321428Y-78192380D01*
X99607142Y-79192380D02*
X99035714Y-79192380D01*
X99321428Y-79192380D02*
X99321428Y-78192380D01*
X99226190Y-78335238D01*
X99130952Y-78430476D01*
X99035714Y-78478095D01*
X103806666Y-78192380D02*
X103806666Y-78906666D01*
X103759047Y-79049523D01*
X103663809Y-79144761D01*
X103520952Y-79192380D01*
X103425714Y-79192380D01*
X104711428Y-78192380D02*
X104520952Y-78192380D01*
X104425714Y-78240000D01*
X104378095Y-78287619D01*
X104282857Y-78430476D01*
X104235238Y-78620952D01*
X104235238Y-79001904D01*
X104282857Y-79097142D01*
X104330476Y-79144761D01*
X104425714Y-79192380D01*
X104616190Y-79192380D01*
X104711428Y-79144761D01*
X104759047Y-79097142D01*
X104806666Y-79001904D01*
X104806666Y-78763809D01*
X104759047Y-78668571D01*
X104711428Y-78620952D01*
X104616190Y-78573333D01*
X104425714Y-78573333D01*
X104330476Y-78620952D01*
X104282857Y-78668571D01*
X104235238Y-78763809D01*
%TO.C,C1*%
X110192380Y-72662380D02*
X109620952Y-72662380D01*
X109906666Y-72662380D02*
X109906666Y-71662380D01*
X109811428Y-71805238D01*
X109716190Y-71900476D01*
X109620952Y-71948095D01*
X110811428Y-71662380D02*
X110906666Y-71662380D01*
X111001904Y-71710000D01*
X111049523Y-71757619D01*
X111097142Y-71852857D01*
X111144761Y-72043333D01*
X111144761Y-72281428D01*
X111097142Y-72471904D01*
X111049523Y-72567142D01*
X111001904Y-72614761D01*
X110906666Y-72662380D01*
X110811428Y-72662380D01*
X110716190Y-72614761D01*
X110668571Y-72567142D01*
X110620952Y-72471904D01*
X110573333Y-72281428D01*
X110573333Y-72043333D01*
X110620952Y-71852857D01*
X110668571Y-71757619D01*
X110716190Y-71710000D01*
X110811428Y-71662380D01*
X111763809Y-71662380D02*
X111859047Y-71662380D01*
X111954285Y-71710000D01*
X112001904Y-71757619D01*
X112049523Y-71852857D01*
X112097142Y-72043333D01*
X112097142Y-72281428D01*
X112049523Y-72471904D01*
X112001904Y-72567142D01*
X111954285Y-72614761D01*
X111859047Y-72662380D01*
X111763809Y-72662380D01*
X111668571Y-72614761D01*
X111620952Y-72567142D01*
X111573333Y-72471904D01*
X111525714Y-72281428D01*
X111525714Y-72043333D01*
X111573333Y-71852857D01*
X111620952Y-71757619D01*
X111668571Y-71710000D01*
X111763809Y-71662380D01*
X112525714Y-71995714D02*
X112525714Y-72662380D01*
X112525714Y-72090952D02*
X112573333Y-72043333D01*
X112668571Y-71995714D01*
X112811428Y-71995714D01*
X112906666Y-72043333D01*
X112954285Y-72138571D01*
X112954285Y-72662380D01*
X113763809Y-72138571D02*
X113430476Y-72138571D01*
X113430476Y-72662380D02*
X113430476Y-71662380D01*
X113906666Y-71662380D01*
D14*
X111673333Y-73782857D02*
X111654285Y-73801904D01*
X111597142Y-73820952D01*
X111559047Y-73820952D01*
X111501904Y-73801904D01*
X111463809Y-73763809D01*
X111444761Y-73725714D01*
X111425714Y-73649523D01*
X111425714Y-73592380D01*
X111444761Y-73516190D01*
X111463809Y-73478095D01*
X111501904Y-73440000D01*
X111559047Y-73420952D01*
X111597142Y-73420952D01*
X111654285Y-73440000D01*
X111673333Y-73459047D01*
X112054285Y-73820952D02*
X111825714Y-73820952D01*
X111940000Y-73820952D02*
X111940000Y-73420952D01*
X111901904Y-73478095D01*
X111863809Y-73516190D01*
X111825714Y-73535238D01*
%TO.C,J7*%
D13*
X91511904Y-81637142D02*
X91464285Y-81684761D01*
X91321428Y-81732380D01*
X91226190Y-81732380D01*
X91083333Y-81684761D01*
X90988095Y-81589523D01*
X90940476Y-81494285D01*
X90892857Y-81303809D01*
X90892857Y-81160952D01*
X90940476Y-80970476D01*
X90988095Y-80875238D01*
X91083333Y-80780000D01*
X91226190Y-80732380D01*
X91321428Y-80732380D01*
X91464285Y-80780000D01*
X91511904Y-80827619D01*
X92083333Y-81732380D02*
X91988095Y-81684761D01*
X91940476Y-81637142D01*
X91892857Y-81541904D01*
X91892857Y-81256190D01*
X91940476Y-81160952D01*
X91988095Y-81113333D01*
X92083333Y-81065714D01*
X92226190Y-81065714D01*
X92321428Y-81113333D01*
X92369047Y-81160952D01*
X92416666Y-81256190D01*
X92416666Y-81541904D01*
X92369047Y-81637142D01*
X92321428Y-81684761D01*
X92226190Y-81732380D01*
X92083333Y-81732380D01*
X92845238Y-81065714D02*
X92845238Y-81732380D01*
X92845238Y-81160952D02*
X92892857Y-81113333D01*
X92988095Y-81065714D01*
X93130952Y-81065714D01*
X93226190Y-81113333D01*
X93273809Y-81208571D01*
X93273809Y-81732380D01*
X93750000Y-81065714D02*
X93750000Y-81732380D01*
X93750000Y-81160952D02*
X93797619Y-81113333D01*
X93892857Y-81065714D01*
X94035714Y-81065714D01*
X94130952Y-81113333D01*
X94178571Y-81208571D01*
X94178571Y-81732380D01*
X94416666Y-81827619D02*
X95178571Y-81827619D01*
X95607142Y-80732380D02*
X95702380Y-80732380D01*
X95797619Y-80780000D01*
X95845238Y-80827619D01*
X95892857Y-80922857D01*
X95940476Y-81113333D01*
X95940476Y-81351428D01*
X95892857Y-81541904D01*
X95845238Y-81637142D01*
X95797619Y-81684761D01*
X95702380Y-81732380D01*
X95607142Y-81732380D01*
X95511904Y-81684761D01*
X95464285Y-81637142D01*
X95416666Y-81541904D01*
X95369047Y-81351428D01*
X95369047Y-81113333D01*
X95416666Y-80922857D01*
X95464285Y-80827619D01*
X95511904Y-80780000D01*
X95607142Y-80732380D01*
X96892857Y-81732380D02*
X96321428Y-81732380D01*
X96607142Y-81732380D02*
X96607142Y-80732380D01*
X96511904Y-80875238D01*
X96416666Y-80970476D01*
X96321428Y-81018095D01*
X97226190Y-81732380D02*
X97750000Y-81065714D01*
X97226190Y-81065714D02*
X97750000Y-81732380D01*
X98321428Y-80732380D02*
X98416666Y-80732380D01*
X98511904Y-80780000D01*
X98559523Y-80827619D01*
X98607142Y-80922857D01*
X98654761Y-81113333D01*
X98654761Y-81351428D01*
X98607142Y-81541904D01*
X98559523Y-81637142D01*
X98511904Y-81684761D01*
X98416666Y-81732380D01*
X98321428Y-81732380D01*
X98226190Y-81684761D01*
X98178571Y-81637142D01*
X98130952Y-81541904D01*
X98083333Y-81351428D01*
X98083333Y-81113333D01*
X98130952Y-80922857D01*
X98178571Y-80827619D01*
X98226190Y-80780000D01*
X98321428Y-80732380D01*
X99607142Y-81732380D02*
X99035714Y-81732380D01*
X99321428Y-81732380D02*
X99321428Y-80732380D01*
X99226190Y-80875238D01*
X99130952Y-80970476D01*
X99035714Y-81018095D01*
X103806666Y-80732380D02*
X103806666Y-81446666D01*
X103759047Y-81589523D01*
X103663809Y-81684761D01*
X103520952Y-81732380D01*
X103425714Y-81732380D01*
X104187619Y-80732380D02*
X104854285Y-80732380D01*
X104425714Y-81732380D01*
%TO.C,J4*%
X91511904Y-74017142D02*
X91464285Y-74064761D01*
X91321428Y-74112380D01*
X91226190Y-74112380D01*
X91083333Y-74064761D01*
X90988095Y-73969523D01*
X90940476Y-73874285D01*
X90892857Y-73683809D01*
X90892857Y-73540952D01*
X90940476Y-73350476D01*
X90988095Y-73255238D01*
X91083333Y-73160000D01*
X91226190Y-73112380D01*
X91321428Y-73112380D01*
X91464285Y-73160000D01*
X91511904Y-73207619D01*
X92083333Y-74112380D02*
X91988095Y-74064761D01*
X91940476Y-74017142D01*
X91892857Y-73921904D01*
X91892857Y-73636190D01*
X91940476Y-73540952D01*
X91988095Y-73493333D01*
X92083333Y-73445714D01*
X92226190Y-73445714D01*
X92321428Y-73493333D01*
X92369047Y-73540952D01*
X92416666Y-73636190D01*
X92416666Y-73921904D01*
X92369047Y-74017142D01*
X92321428Y-74064761D01*
X92226190Y-74112380D01*
X92083333Y-74112380D01*
X92845238Y-73445714D02*
X92845238Y-74112380D01*
X92845238Y-73540952D02*
X92892857Y-73493333D01*
X92988095Y-73445714D01*
X93130952Y-73445714D01*
X93226190Y-73493333D01*
X93273809Y-73588571D01*
X93273809Y-74112380D01*
X93750000Y-73445714D02*
X93750000Y-74112380D01*
X93750000Y-73540952D02*
X93797619Y-73493333D01*
X93892857Y-73445714D01*
X94035714Y-73445714D01*
X94130952Y-73493333D01*
X94178571Y-73588571D01*
X94178571Y-74112380D01*
X94416666Y-74207619D02*
X95178571Y-74207619D01*
X95607142Y-73112380D02*
X95702380Y-73112380D01*
X95797619Y-73160000D01*
X95845238Y-73207619D01*
X95892857Y-73302857D01*
X95940476Y-73493333D01*
X95940476Y-73731428D01*
X95892857Y-73921904D01*
X95845238Y-74017142D01*
X95797619Y-74064761D01*
X95702380Y-74112380D01*
X95607142Y-74112380D01*
X95511904Y-74064761D01*
X95464285Y-74017142D01*
X95416666Y-73921904D01*
X95369047Y-73731428D01*
X95369047Y-73493333D01*
X95416666Y-73302857D01*
X95464285Y-73207619D01*
X95511904Y-73160000D01*
X95607142Y-73112380D01*
X96892857Y-74112380D02*
X96321428Y-74112380D01*
X96607142Y-74112380D02*
X96607142Y-73112380D01*
X96511904Y-73255238D01*
X96416666Y-73350476D01*
X96321428Y-73398095D01*
X97226190Y-74112380D02*
X97750000Y-73445714D01*
X97226190Y-73445714D02*
X97750000Y-74112380D01*
X98321428Y-73112380D02*
X98416666Y-73112380D01*
X98511904Y-73160000D01*
X98559523Y-73207619D01*
X98607142Y-73302857D01*
X98654761Y-73493333D01*
X98654761Y-73731428D01*
X98607142Y-73921904D01*
X98559523Y-74017142D01*
X98511904Y-74064761D01*
X98416666Y-74112380D01*
X98321428Y-74112380D01*
X98226190Y-74064761D01*
X98178571Y-74017142D01*
X98130952Y-73921904D01*
X98083333Y-73731428D01*
X98083333Y-73493333D01*
X98130952Y-73302857D01*
X98178571Y-73207619D01*
X98226190Y-73160000D01*
X98321428Y-73112380D01*
X99607142Y-74112380D02*
X99035714Y-74112380D01*
X99321428Y-74112380D02*
X99321428Y-73112380D01*
X99226190Y-73255238D01*
X99130952Y-73350476D01*
X99035714Y-73398095D01*
X103806666Y-73112380D02*
X103806666Y-73826666D01*
X103759047Y-73969523D01*
X103663809Y-74064761D01*
X103520952Y-74112380D01*
X103425714Y-74112380D01*
X104711428Y-73445714D02*
X104711428Y-74112380D01*
X104473333Y-73064761D02*
X104235238Y-73779047D01*
X104854285Y-73779047D01*
%TO.C,J5*%
X91511904Y-76557142D02*
X91464285Y-76604761D01*
X91321428Y-76652380D01*
X91226190Y-76652380D01*
X91083333Y-76604761D01*
X90988095Y-76509523D01*
X90940476Y-76414285D01*
X90892857Y-76223809D01*
X90892857Y-76080952D01*
X90940476Y-75890476D01*
X90988095Y-75795238D01*
X91083333Y-75700000D01*
X91226190Y-75652380D01*
X91321428Y-75652380D01*
X91464285Y-75700000D01*
X91511904Y-75747619D01*
X92083333Y-76652380D02*
X91988095Y-76604761D01*
X91940476Y-76557142D01*
X91892857Y-76461904D01*
X91892857Y-76176190D01*
X91940476Y-76080952D01*
X91988095Y-76033333D01*
X92083333Y-75985714D01*
X92226190Y-75985714D01*
X92321428Y-76033333D01*
X92369047Y-76080952D01*
X92416666Y-76176190D01*
X92416666Y-76461904D01*
X92369047Y-76557142D01*
X92321428Y-76604761D01*
X92226190Y-76652380D01*
X92083333Y-76652380D01*
X92845238Y-75985714D02*
X92845238Y-76652380D01*
X92845238Y-76080952D02*
X92892857Y-76033333D01*
X92988095Y-75985714D01*
X93130952Y-75985714D01*
X93226190Y-76033333D01*
X93273809Y-76128571D01*
X93273809Y-76652380D01*
X93750000Y-75985714D02*
X93750000Y-76652380D01*
X93750000Y-76080952D02*
X93797619Y-76033333D01*
X93892857Y-75985714D01*
X94035714Y-75985714D01*
X94130952Y-76033333D01*
X94178571Y-76128571D01*
X94178571Y-76652380D01*
X94416666Y-76747619D02*
X95178571Y-76747619D01*
X95607142Y-75652380D02*
X95702380Y-75652380D01*
X95797619Y-75700000D01*
X95845238Y-75747619D01*
X95892857Y-75842857D01*
X95940476Y-76033333D01*
X95940476Y-76271428D01*
X95892857Y-76461904D01*
X95845238Y-76557142D01*
X95797619Y-76604761D01*
X95702380Y-76652380D01*
X95607142Y-76652380D01*
X95511904Y-76604761D01*
X95464285Y-76557142D01*
X95416666Y-76461904D01*
X95369047Y-76271428D01*
X95369047Y-76033333D01*
X95416666Y-75842857D01*
X95464285Y-75747619D01*
X95511904Y-75700000D01*
X95607142Y-75652380D01*
X96892857Y-76652380D02*
X96321428Y-76652380D01*
X96607142Y-76652380D02*
X96607142Y-75652380D01*
X96511904Y-75795238D01*
X96416666Y-75890476D01*
X96321428Y-75938095D01*
X97226190Y-76652380D02*
X97750000Y-75985714D01*
X97226190Y-75985714D02*
X97750000Y-76652380D01*
X98321428Y-75652380D02*
X98416666Y-75652380D01*
X98511904Y-75700000D01*
X98559523Y-75747619D01*
X98607142Y-75842857D01*
X98654761Y-76033333D01*
X98654761Y-76271428D01*
X98607142Y-76461904D01*
X98559523Y-76557142D01*
X98511904Y-76604761D01*
X98416666Y-76652380D01*
X98321428Y-76652380D01*
X98226190Y-76604761D01*
X98178571Y-76557142D01*
X98130952Y-76461904D01*
X98083333Y-76271428D01*
X98083333Y-76033333D01*
X98130952Y-75842857D01*
X98178571Y-75747619D01*
X98226190Y-75700000D01*
X98321428Y-75652380D01*
X99607142Y-76652380D02*
X99035714Y-76652380D01*
X99321428Y-76652380D02*
X99321428Y-75652380D01*
X99226190Y-75795238D01*
X99130952Y-75890476D01*
X99035714Y-75938095D01*
X103806666Y-75652380D02*
X103806666Y-76366666D01*
X103759047Y-76509523D01*
X103663809Y-76604761D01*
X103520952Y-76652380D01*
X103425714Y-76652380D01*
X104759047Y-75652380D02*
X104282857Y-75652380D01*
X104235238Y-76128571D01*
X104282857Y-76080952D01*
X104378095Y-76033333D01*
X104616190Y-76033333D01*
X104711428Y-76080952D01*
X104759047Y-76128571D01*
X104806666Y-76223809D01*
X104806666Y-76461904D01*
X104759047Y-76557142D01*
X104711428Y-76604761D01*
X104616190Y-76652380D01*
X104378095Y-76652380D01*
X104282857Y-76604761D01*
X104235238Y-76557142D01*
%TO.C,C2*%
X109868571Y-69092380D02*
X109297142Y-69092380D01*
X109582857Y-69092380D02*
X109582857Y-68092380D01*
X109487619Y-68235238D01*
X109392380Y-68330476D01*
X109297142Y-68378095D01*
X110487619Y-68092380D02*
X110582857Y-68092380D01*
X110678095Y-68140000D01*
X110725714Y-68187619D01*
X110773333Y-68282857D01*
X110820952Y-68473333D01*
X110820952Y-68711428D01*
X110773333Y-68901904D01*
X110725714Y-68997142D01*
X110678095Y-69044761D01*
X110582857Y-69092380D01*
X110487619Y-69092380D01*
X110392380Y-69044761D01*
X110344761Y-68997142D01*
X110297142Y-68901904D01*
X110249523Y-68711428D01*
X110249523Y-68473333D01*
X110297142Y-68282857D01*
X110344761Y-68187619D01*
X110392380Y-68140000D01*
X110487619Y-68092380D01*
X111678095Y-68425714D02*
X111678095Y-69092380D01*
X111249523Y-68425714D02*
X111249523Y-68949523D01*
X111297142Y-69044761D01*
X111392380Y-69092380D01*
X111535238Y-69092380D01*
X111630476Y-69044761D01*
X111678095Y-68997142D01*
X112487619Y-68568571D02*
X112154285Y-68568571D01*
X112154285Y-69092380D02*
X112154285Y-68092380D01*
X112630476Y-68092380D01*
D11*
X110806666Y-71225714D02*
X110768571Y-71263809D01*
X110654285Y-71301904D01*
X110578095Y-71301904D01*
X110463809Y-71263809D01*
X110387619Y-71187619D01*
X110349523Y-71111428D01*
X110311428Y-70959047D01*
X110311428Y-70844761D01*
X110349523Y-70692380D01*
X110387619Y-70616190D01*
X110463809Y-70540000D01*
X110578095Y-70501904D01*
X110654285Y-70501904D01*
X110768571Y-70540000D01*
X110806666Y-70578095D01*
X111111428Y-70578095D02*
X111149523Y-70540000D01*
X111225714Y-70501904D01*
X111416190Y-70501904D01*
X111492380Y-70540000D01*
X111530476Y-70578095D01*
X111568571Y-70654285D01*
X111568571Y-70730476D01*
X111530476Y-70844761D01*
X111073333Y-71301904D01*
X111568571Y-71301904D01*
%TO.C,C3*%
D13*
X115592380Y-76922380D02*
X115020952Y-76922380D01*
X115306666Y-76922380D02*
X115306666Y-75922380D01*
X115211428Y-76065238D01*
X115116190Y-76160476D01*
X115020952Y-76208095D01*
X116211428Y-75922380D02*
X116306666Y-75922380D01*
X116401904Y-75970000D01*
X116449523Y-76017619D01*
X116497142Y-76112857D01*
X116544761Y-76303333D01*
X116544761Y-76541428D01*
X116497142Y-76731904D01*
X116449523Y-76827142D01*
X116401904Y-76874761D01*
X116306666Y-76922380D01*
X116211428Y-76922380D01*
X116116190Y-76874761D01*
X116068571Y-76827142D01*
X116020952Y-76731904D01*
X115973333Y-76541428D01*
X115973333Y-76303333D01*
X116020952Y-76112857D01*
X116068571Y-76017619D01*
X116116190Y-75970000D01*
X116211428Y-75922380D01*
X117163809Y-75922380D02*
X117259047Y-75922380D01*
X117354285Y-75970000D01*
X117401904Y-76017619D01*
X117449523Y-76112857D01*
X117497142Y-76303333D01*
X117497142Y-76541428D01*
X117449523Y-76731904D01*
X117401904Y-76827142D01*
X117354285Y-76874761D01*
X117259047Y-76922380D01*
X117163809Y-76922380D01*
X117068571Y-76874761D01*
X117020952Y-76827142D01*
X116973333Y-76731904D01*
X116925714Y-76541428D01*
X116925714Y-76303333D01*
X116973333Y-76112857D01*
X117020952Y-76017619D01*
X117068571Y-75970000D01*
X117163809Y-75922380D01*
X117925714Y-76255714D02*
X117925714Y-76922380D01*
X117925714Y-76350952D02*
X117973333Y-76303333D01*
X118068571Y-76255714D01*
X118211428Y-76255714D01*
X118306666Y-76303333D01*
X118354285Y-76398571D01*
X118354285Y-76922380D01*
X119163809Y-76398571D02*
X118830476Y-76398571D01*
X118830476Y-76922380D02*
X118830476Y-75922380D01*
X119306666Y-75922380D01*
D14*
X117073333Y-75182857D02*
X117054285Y-75201904D01*
X116997142Y-75220952D01*
X116959047Y-75220952D01*
X116901904Y-75201904D01*
X116863809Y-75163809D01*
X116844761Y-75125714D01*
X116825714Y-75049523D01*
X116825714Y-74992380D01*
X116844761Y-74916190D01*
X116863809Y-74878095D01*
X116901904Y-74840000D01*
X116959047Y-74820952D01*
X116997142Y-74820952D01*
X117054285Y-74840000D01*
X117073333Y-74859047D01*
X117206666Y-74820952D02*
X117454285Y-74820952D01*
X117320952Y-74973333D01*
X117378095Y-74973333D01*
X117416190Y-74992380D01*
X117435238Y-75011428D01*
X117454285Y-75049523D01*
X117454285Y-75144761D01*
X117435238Y-75182857D01*
X117416190Y-75201904D01*
X117378095Y-75220952D01*
X117263809Y-75220952D01*
X117225714Y-75201904D01*
X117206666Y-75182857D01*
%TO.C,C4*%
D13*
X113562380Y-79735238D02*
X113562380Y-80306666D01*
X113562380Y-80020952D02*
X112562380Y-80020952D01*
X112705238Y-80116190D01*
X112800476Y-80211428D01*
X112848095Y-80306666D01*
X112895714Y-79306666D02*
X113562380Y-79306666D01*
X112990952Y-79306666D02*
X112943333Y-79259047D01*
X112895714Y-79163809D01*
X112895714Y-79020952D01*
X112943333Y-78925714D01*
X113038571Y-78878095D01*
X113562380Y-78878095D01*
X113038571Y-78068571D02*
X113038571Y-78401904D01*
X113562380Y-78401904D02*
X112562380Y-78401904D01*
X112562380Y-77925714D01*
D14*
X114682857Y-79206666D02*
X114701904Y-79225714D01*
X114720952Y-79282857D01*
X114720952Y-79320952D01*
X114701904Y-79378095D01*
X114663809Y-79416190D01*
X114625714Y-79435238D01*
X114549523Y-79454285D01*
X114492380Y-79454285D01*
X114416190Y-79435238D01*
X114378095Y-79416190D01*
X114340000Y-79378095D01*
X114320952Y-79320952D01*
X114320952Y-79282857D01*
X114340000Y-79225714D01*
X114359047Y-79206666D01*
X114454285Y-78863809D02*
X114720952Y-78863809D01*
X114301904Y-78959047D02*
X114587619Y-79054285D01*
X114587619Y-78806666D01*
%TO.C,U1*%
D13*
X103006666Y-81006666D02*
X103482857Y-81006666D01*
X102911428Y-81292380D02*
X103244761Y-80292380D01*
X103578095Y-81292380D01*
X104482857Y-81197142D02*
X104435238Y-81244761D01*
X104292380Y-81292380D01*
X104197142Y-81292380D01*
X104054285Y-81244761D01*
X103959047Y-81149523D01*
X103911428Y-81054285D01*
X103863809Y-80863809D01*
X103863809Y-80720952D01*
X103911428Y-80530476D01*
X103959047Y-80435238D01*
X104054285Y-80340000D01*
X104197142Y-80292380D01*
X104292380Y-80292380D01*
X104435238Y-80340000D01*
X104482857Y-80387619D01*
X104863809Y-81244761D02*
X105006666Y-81292380D01*
X105244761Y-81292380D01*
X105340000Y-81244761D01*
X105387619Y-81197142D01*
X105435238Y-81101904D01*
X105435238Y-81006666D01*
X105387619Y-80911428D01*
X105340000Y-80863809D01*
X105244761Y-80816190D01*
X105054285Y-80768571D01*
X104959047Y-80720952D01*
X104911428Y-80673333D01*
X104863809Y-80578095D01*
X104863809Y-80482857D01*
X104911428Y-80387619D01*
X104959047Y-80340000D01*
X105054285Y-80292380D01*
X105292380Y-80292380D01*
X105435238Y-80340000D01*
X105768571Y-80292380D02*
X106435238Y-80292380D01*
X106006666Y-81292380D01*
X107340000Y-81292380D02*
X106768571Y-81292380D01*
X107054285Y-81292380D02*
X107054285Y-80292380D01*
X106959047Y-80435238D01*
X106863809Y-80530476D01*
X106768571Y-80578095D01*
X107720952Y-80387619D02*
X107768571Y-80340000D01*
X107863809Y-80292380D01*
X108101904Y-80292380D01*
X108197142Y-80340000D01*
X108244761Y-80387619D01*
X108292380Y-80482857D01*
X108292380Y-80578095D01*
X108244761Y-80720952D01*
X107673333Y-81292380D01*
X108292380Y-81292380D01*
X108625714Y-81292380D02*
X109149523Y-80625714D01*
X108625714Y-80625714D02*
X109149523Y-81292380D01*
X110006666Y-81292380D02*
X109530476Y-81292380D01*
X109530476Y-80292380D01*
X110911428Y-81197142D02*
X110863809Y-81244761D01*
X110720952Y-81292380D01*
X110625714Y-81292380D01*
X110482857Y-81244761D01*
X110387619Y-81149523D01*
X110340000Y-81054285D01*
X110292380Y-80863809D01*
X110292380Y-80720952D01*
X110340000Y-80530476D01*
X110387619Y-80435238D01*
X110482857Y-80340000D01*
X110625714Y-80292380D01*
X110720952Y-80292380D01*
X110863809Y-80340000D01*
X110911428Y-80387619D01*
X111197142Y-80292380D02*
X111768571Y-80292380D01*
X111482857Y-81292380D02*
X111482857Y-80292380D01*
X112673333Y-81292380D02*
X112340000Y-80816190D01*
X112101904Y-81292380D02*
X112101904Y-80292380D01*
X112482857Y-80292380D01*
X112578095Y-80340000D01*
X112625714Y-80387619D01*
X112673333Y-80482857D01*
X112673333Y-80625714D01*
X112625714Y-80720952D01*
X112578095Y-80768571D01*
X112482857Y-80816190D01*
X112101904Y-80816190D01*
X113101904Y-80911428D02*
X113863809Y-80911428D01*
X114292380Y-80387619D02*
X114340000Y-80340000D01*
X114435238Y-80292380D01*
X114673333Y-80292380D01*
X114768571Y-80340000D01*
X114816190Y-80387619D01*
X114863809Y-80482857D01*
X114863809Y-80578095D01*
X114816190Y-80720952D01*
X114244761Y-81292380D01*
X114863809Y-81292380D01*
X115482857Y-80292380D02*
X115578095Y-80292380D01*
X115673333Y-80340000D01*
X115720952Y-80387619D01*
X115768571Y-80482857D01*
X115816190Y-80673333D01*
X115816190Y-80911428D01*
X115768571Y-81101904D01*
X115720952Y-81197142D01*
X115673333Y-81244761D01*
X115578095Y-81292380D01*
X115482857Y-81292380D01*
X115387619Y-81244761D01*
X115340000Y-81197142D01*
X115292380Y-81101904D01*
X115244761Y-80911428D01*
X115244761Y-80673333D01*
X115292380Y-80482857D01*
X115340000Y-80387619D01*
X115387619Y-80340000D01*
X115482857Y-80292380D01*
X116197142Y-81006666D02*
X116673333Y-81006666D01*
X116101904Y-81292380D02*
X116435238Y-80292380D01*
X116768571Y-81292380D01*
X109093333Y-76903333D02*
X109093333Y-77696666D01*
X109140000Y-77790000D01*
X109186666Y-77836666D01*
X109280000Y-77883333D01*
X109466666Y-77883333D01*
X109560000Y-77836666D01*
X109606666Y-77790000D01*
X109653333Y-77696666D01*
X109653333Y-76903333D01*
X110633333Y-77883333D02*
X110073333Y-77883333D01*
X110353333Y-77883333D02*
X110353333Y-76903333D01*
X110260000Y-77043333D01*
X110166666Y-77136666D01*
X110073333Y-77183333D01*
%TD*%
M02*
